<?xml version="1.0" encoding="UTF-8"?>
<svg version="1.1" xmlns="http://www.w3.org/2000/svg" width="1280" height="853">
<path d="M0 0 C3.82419221 0.00422883 7.64836639 -0.00326421 11.47255397 -0.00915251 C18.15347606 -0.0178575 24.83436749 -0.01924712 31.51529384 -0.01564924 C41.45053169 -0.01031308 51.38574016 -0.01646655 61.32097483 -0.02473217 C80.1011635 -0.03992838 98.88133863 -0.04168185 117.66153216 -0.03920914 C132.16596967 -0.03737292 146.67040278 -0.03914298 161.17483974 -0.04343358 C163.26235239 -0.044036 165.34986504 -0.04463719 167.43737769 -0.04523719 C170.58343488 -0.04614448 173.72949207 -0.04705316 176.87554926 -0.04796954 C206.1038123 -0.05639216 235.33207369 -0.06073943 264.56033778 -0.05656282 C265.6609101 -0.05640644 266.76148242 -0.05625007 267.89540541 -0.05608895 C273.47293091 -0.05528323 279.05045641 -0.05443745 284.6279819 -0.05357565 C285.73560295 -0.05340456 286.84322401 -0.05323347 287.98440933 -0.0530572 C290.22428306 -0.05271054 292.46415679 -0.05236201 294.70403051 -0.05201161 C329.5629626 -0.04665344 364.4218694 -0.05459042 399.28079677 -0.07304517 C438.48726673 -0.09377749 477.69372104 -0.10448572 516.90019679 -0.10046969 C521.08321579 -0.10007436 525.26623479 -0.09971281 529.4492538 -0.0993723 C530.99408917 -0.09923621 530.99408917 -0.09923621 532.57013333 -0.09909736 C548.09071916 -0.0979333 563.61128912 -0.10456497 579.13187099 -0.11518422 C596.78769565 -0.12725245 614.44348544 -0.12877631 632.09931064 -0.11639406 C641.96843983 -0.10978176 651.83748554 -0.11135886 661.706608 -0.12498257 C668.31239512 -0.13326234 674.9181201 -0.13048402 681.52390224 -0.1190073 C685.27843908 -0.11278578 689.03281377 -0.1110585 692.78734088 -0.12287064 C716.13046755 -0.19117611 737.89086461 1.58183043 760.31204677 8.26313647 C761.9730038 8.74073413 761.9730038 8.74073413 763.66751552 9.22798022 C771.66442611 11.68938071 778.94250258 15.36963162 786.31204677 19.26313647 C787.27239833 19.75942553 788.23274989 20.25571459 789.22220302 20.76704272 C823.63838845 38.94076942 849.21794545 69.34135591 861.31204677 106.26313647 C872.49869085 143.41610235 867.99403373 182.22302204 849.76150966 216.20405444 C830.63086242 250.84335384 796.54426804 275.60639663 758.87454677 286.57563647 C749.1416062 289.29403914 739.32751803 290.99894298 729.31204677 292.26313647 C727.34994998 292.5232821 727.34994998 292.5232821 725.34821486 292.7886832 C719.38179953 293.44170994 713.43253334 293.40486269 707.43648219 293.39735755 C706.15380025 293.39970978 704.87111831 293.40206201 703.54956722 293.40448552 C699.99396081 293.41085581 696.43837708 293.41104953 692.88276605 293.41020811 C689.01241549 293.4103782 685.14207291 293.41629098 681.27172637 293.42144897 C673.59721435 293.43076003 665.92270809 293.4346945 658.24819112 293.43696794 C649.05426276 293.43993396 639.86034203 293.44863381 630.66641767 293.45738222 C608.44326512 293.47821279 586.22011125 293.4886948 563.99695121 293.49751182 C553.47855742 293.5017209 542.96016419 293.50694258 532.44177087 293.51219635 C496.4196439 293.53008664 460.39751675 293.545081 424.375386 293.55251654 C422.11443228 293.5529913 419.85347855 293.55346719 417.59252483 293.5539442 C415.91071676 293.55429877 415.91071676 293.55429877 414.19493277 293.5546605 C408.51456972 293.55586167 402.83420668 293.55707712 397.15384364 293.55830249 C395.46292993 293.55866271 395.46292993 293.55866271 393.73785634 293.55903021 C357.20836116 293.56691897 320.67889849 293.59034203 284.1494175 293.62285843 C245.50801255 293.65719177 206.8666266 293.67687099 168.22520614 293.68016078 C163.97930152 293.6805783 159.73339692 293.68105786 155.48749232 293.68158396 C154.44206834 293.68170716 153.39664435 293.68183035 152.31954085 293.68195727 C135.52752019 293.68428507 118.73553742 293.69992167 101.94353025 293.72042581 C85.04809528 293.7407281 68.15270559 293.74614035 51.25726068 293.73665518 C41.23327628 293.73145713 31.20944313 293.73723707 21.18548064 293.75918985 C14.47218822 293.77277455 7.75899902 293.77155384 1.0457054 293.75878789 C-2.7680429 293.75194178 -6.5815037 293.75104492 -10.39522541 293.76834798 C-34.08872946 293.86913174 -57.18497329 292.20332508 -79.68795323 284.26313647 C-80.31282628 284.04431811 -80.93769933 283.82549975 -81.58150792 283.60005053 C-104.3767766 275.4411206 -123.82300494 262.57189919 -140.68795323 245.26313647 C-141.2564298 244.73977709 -141.82490636 244.21641772 -142.41060948 243.67719897 C-167.3333053 220.19139814 -179.4814748 184.65131202 -180.81295323 151.11469897 C-181.36346568 121.04295683 -173.21083088 91.86141424 -155.68795323 67.26313647 C-155.05832677 66.37537524 -155.05832677 66.37537524 -154.41598058 65.46967944 C-129.68596122 31.18380685 -92.13627783 9.37014238 -50.68795323 2.26313647 C-33.87818549 -0.11215194 -16.93720154 -0.02870489 0 0 Z " fill="#6C69C9" transform="translate(296.6879532337189,259.73686353024095)"/>
<path d="M0 0 C5.46560284 5.7263472 8.33467314 11.92666078 8.62890625 19.85546875 C7.90842887 28.9334837 5.45609298 37.14652101 -1.30859375 43.54296875 C-7.85166469 48.83800949 -14.84739371 51.511216 -23.296875 51.11328125 C-30.02243421 50.21066938 -34.17069621 47.93265761 -38.68359375 42.79296875 C-39.44671875 42.07109375 -40.20984375 41.34921875 -40.99609375 40.60546875 C-42.68359375 38.79296875 -42.68359375 38.79296875 -42.68359375 36.79296875 C-42.16410156 36.56222656 -41.64460937 36.33148438 -41.109375 36.09375 C-36.45534089 33.91727933 -33.07990643 31.75533355 -29.68359375 27.79296875 C-28.53890625 26.49359375 -28.53890625 26.49359375 -27.37109375 25.16796875 C-24.98320394 20.39218913 -24.7169422 16.03582459 -25.68359375 10.79296875 C-28.66452958 7.40920375 -31.52451666 6.01210969 -36.03125 5.5546875 C-47.50148695 5.24111268 -55.20982811 9.32064814 -63.68359375 16.79296875 C-64.35132813 17.36660156 -65.0190625 17.94023437 -65.70703125 18.53125 C-85.16325768 36.48788586 -95.36606549 66.13721105 -96.86328125 91.8828125 C-97.12695996 102.32741902 -95.50611017 110.64341824 -88.68359375 118.79296875 C-83.40335578 124.22746086 -78.15089342 127.87938631 -70.3828125 128.19140625 C-68.37890669 128.19933205 -66.37488202 128.19107457 -64.37109375 128.16796875 C-62.87932617 128.18537109 -62.87932617 128.18537109 -61.35742188 128.203125 C-46.74011728 128.14553877 -32.52604634 121.37081076 -22 111.34765625 C-18.52618457 107.51650062 -15.58736277 103.38138016 -12.69140625 99.1015625 C-12.02882813 98.33972656 -11.36625 97.57789063 -10.68359375 96.79296875 C-9.36359375 96.79296875 -8.04359375 96.79296875 -6.68359375 96.79296875 C-6.66296875 95.72046875 -6.64234375 94.64796875 -6.62109375 93.54296875 C-5.39755794 83.70224499 2.18254317 74.15408774 9.57421875 67.875 C30.5786203 51.66712597 53.18433854 47.59183857 79.31640625 49.79296875 C89.61802974 51.39523233 98.88179556 55.95641512 105.31640625 64.29296875 C108.55852676 70.04938679 108.19207954 76.4192156 107.31640625 82.79296875 C104.2486623 93.03754489 96.36548946 100.2496847 87.25 105.35546875 C72.68269538 112.49364199 55.67218534 117.86547885 39.31640625 116.79296875 C42.00961382 123.69901497 44.70304348 128.17328074 50.81640625 132.60546875 C62.37220036 136.52618461 75.79463053 133.13143318 86.50390625 128.10546875 C99.63020157 121.06673068 108.66403584 111.03374448 115.31640625 97.79296875 C118.81044208 98.51673332 121.8363953 99.85582081 125.06640625 101.35546875 C126.05125 101.81050781 127.03609375 102.26554687 128.05078125 102.734375 C128.7984375 103.08371094 129.54609375 103.43304688 130.31640625 103.79296875 C128.42603342 111.24643876 125.04899246 116.78230642 120.31640625 122.79296875 C119.66800781 123.61925781 119.01960938 124.44554687 118.3515625 125.296875 C107.16443294 138.60893419 92.85753049 146.23572024 76.31640625 150.79296875 C75.30320312 151.09589844 74.29 151.39882813 73.24609375 151.7109375 C65.37143955 153.77150426 57.8036497 154.07438736 49.69140625 154.10546875 C48.65467773 154.11094727 47.61794922 154.11642578 46.54980469 154.12207031 C30.25497654 153.97248183 14.37071309 150.52417046 2.31640625 138.79296875 C-2.31523476 133.71377592 -5.17894411 128.15772548 -7.68359375 121.79296875 C-8.41449219 122.61087891 -8.41449219 122.61087891 -9.16015625 123.4453125 C-25.70447062 141.04244687 -50.54942769 151.14889092 -74.53515625 152.09765625 C-98.94445092 152.59847139 -122.19062842 148.46477175 -140.4375 131.09375 C-153.37396631 117.84230886 -158.05579765 102.30579798 -157.98657227 84.17407227 C-157.41345015 57.14753508 -145.86906708 34.15589269 -126.64453125 15.375 C-95.55488172 -11.73615876 -35.26328994 -29.00110453 0 0 Z " fill="#FCFBFD" transform="translate(922.68359375,329.20703125)"/>
<path d="M0 0 C8.59256376 8.56293423 10.52189109 15.81352758 10.57470703 27.59887695 C10.36066074 41.02246554 4.56303854 51.95159355 -4.5 61.625 C-13.81397578 70.547931 -25.03003098 75.46948164 -37.1875 79.125 C-37.87086426 79.33141113 -38.55422852 79.53782227 -39.25830078 79.75048828 C-50.40568599 82.97550149 -60.90764821 83.77203713 -72.5 83.625 C-73.8951758 83.61494059 -75.2903587 83.60582002 -76.68554688 83.59765625 C-80.0613837 83.57429406 -83.43684618 83.54153668 -86.8125 83.5 C-86.93584717 84.06775146 -87.05919434 84.63550293 -87.1862793 85.22045898 C-88.82993922 92.71276314 -90.74695342 100.11421326 -92.8125 107.5 C-93.00215332 108.18642578 -93.19180664 108.87285156 -93.38720703 109.58007812 C-97.08912262 122.80693918 -101.99291234 135.88481616 -114.55859375 143.0703125 C-125.93791998 148.47433446 -141.03222366 149.74217255 -153.3125 146.375 C-159.68505498 144.02309043 -167.41020452 140.8466823 -171.8125 135.5 C-171.8125 134.84 -171.8125 134.18 -171.8125 133.5 C-170.66673404 132.45244255 -169.4685644 131.46190283 -168.25 130.5 C-158.87105293 122.3947371 -155.16273257 112.93176743 -151.45605469 101.45361328 C-150.62801386 98.93996278 -149.6936198 96.47228388 -148.75 94 C-146.88805359 88.91017109 -145.37829685 83.7309327 -143.87646484 78.52685547 C-141.59057443 70.6421651 -139.08370431 62.83146375 -136.57421875 55.015625 C-135.42982279 51.44916412 -134.30668014 47.87738087 -133.20703125 44.296875 C-124.13355465 14.82105465 -124.13355465 14.82105465 -117.8125 8.5 C-131.55683358 10.14515508 -144.68200591 19.91836739 -153.2734375 30.3828125 C-158.8587315 38.06613572 -161.25796267 44.93563016 -159.8125 54.5 C-158.03805121 59.9323907 -154.25036099 63.17160426 -149.8125 66.5 C-151.18114831 70.97921264 -152.94659258 72.89471457 -156.8125 75.5 C-157.32167969 75.87511719 -157.83085937 76.25023437 -158.35546875 76.63671875 C-165.09173388 80.87476635 -173.18429289 80.40344368 -180.8125 79.5 C-187.14867838 77.29407123 -191.86653974 72.27419339 -194.91015625 66.37109375 C-197.84592164 57.03002204 -197.10342633 45.84525291 -192.9375 37.0625 C-180.94765955 16.46395411 -161.34741681 2.91942049 -138.98828125 -4.44921875 C-136.13377654 -5.39369817 -133.39498003 -6.46029974 -130.625 -7.625 C-95.46946588 -21.86908556 -30.65703874 -26.10356681 0 0 Z " fill="#FCFCFD" transform="translate(572.8125,331.5)"/>
<path d="M0 0 C0.85078125 0.28875 1.7015625 0.5775 2.578125 0.875 C11.28998084 4.28663585 20.16394281 10.00903778 24.26171875 18.63671875 C25.95183063 24.04686525 25.6846445 28.90579329 23.9375 34.25 C20.82443568 38.66854291 17.17827004 42.27390999 12 44 C3.75140584 44.69690338 -2.77713818 44.18067454 -10 40 C-8.87548273 37.0280615 -7.77706209 34.66559313 -6 32 C-5.45446513 28.93351979 -5.47142483 26.06897215 -6 23 C-8.85245538 19.16955992 -11.52707309 17.46548887 -16 16 C-24.95794078 14.96092262 -32.61007837 15.5662341 -40 21 C-44.33703936 25.0479034 -47.70525183 29.18618315 -48.3359375 35.20703125 C-48.55146714 44.88085795 -48.55146714 44.88085795 -44 53 C-37.46142197 58.051698 -30.8373024 57.62586557 -22.8125 57.6875 C-20.2981165 57.72959775 -17.78378591 57.77502392 -15.26953125 57.82421875 C-14.16198486 57.83541748 -13.05443848 57.84661621 -11.91333008 57.8581543 C-9.43056119 57.97903662 -7.36602047 58.2805315 -5 59 C-5.68959733 62.87898501 -6.74908361 66.51564667 -8 70.25 C-8.350625 71.30703125 -8.70125 72.3640625 -9.0625 73.453125 C-10 76 -10 76 -11 77 C-12.7233152 77.13391007 -14.45170079 77.20356001 -16.1796875 77.24609375 C-17.79230469 77.29540039 -17.79230469 77.29540039 -19.4375 77.34570312 C-21.69002958 77.4058559 -23.94263494 77.46324884 -26.1953125 77.51757812 C-41.81317997 78.00794956 -56.11543383 80.62184683 -67.25 92.375 C-67.8275 93.24125 -68.405 94.1075 -69 95 C-69.37125 95.53882813 -69.7425 96.07765625 -70.125 96.6328125 C-73.80657557 102.74320529 -73.86231604 109.04049985 -73 116 C-72.07976823 119.02643068 -70.80055494 121.41170228 -69 124 C-68.278125 125.0725 -67.55625 126.145 -66.8125 127.25 C-59.19138187 134.70175995 -48.37851911 136.05306002 -38.125 136.3125 C-28.06069662 136.10621978 -19.91881395 133.75225408 -11.0625 129.125 C-10.12192749 128.63386719 -10.12192749 128.63386719 -9.16235352 128.1328125 C-5.12256255 125.90666104 -2.11330538 123.38242161 1 120 C1.66902344 119.30519531 2.33804688 118.61039062 3.02734375 117.89453125 C7.34194007 113.19170949 10.60455567 108.57947712 13.48046875 102.87109375 C15 101 15 101 17.3125 100.53515625 C20.6151259 101.10639532 22.91518298 102.32444317 25.8125 104 C26.78832031 104.556875 27.76414062 105.11375 28.76953125 105.6875 C29.50558594 106.120625 30.24164063 106.55375 31 107 C23.01634608 127.72036692 7.81542225 142.53656322 -12 152 C-15.53873113 153.4782125 -19.11593746 154.77647967 -22.75 156 C-23.5759668 156.27851807 -24.40193359 156.55703613 -25.25292969 156.84399414 C-37.31786977 160.64129278 -49.4905139 161.41406984 -62.0625 161.375 C-62.78511017 161.3737915 -63.50772034 161.37258301 -64.25222778 161.37133789 C-87.24707657 161.2673218 -110.75877102 157.13754715 -127.72265625 140.2890625 C-135.96571524 131.33714094 -138.56453152 120.85518308 -138.375 108.85546875 C-137.42186479 99.0560474 -132.56513327 91.1267129 -126 84 C-125.37738281 83.32324219 -124.75476563 82.64648438 -124.11328125 81.94921875 C-115.08043678 73.08842846 -102.80498896 68.09533715 -90.76953125 64.7890625 C-88.08799159 64.02506954 -85.56842725 63.07996027 -83 62 C-83.77923828 61.47212891 -83.77923828 61.47212891 -84.57421875 60.93359375 C-91.53625047 56.00483562 -95.64582973 51.29077356 -98 43 C-99.30425053 33.34352971 -97.4347325 26.03934496 -92 18 C-84.17028184 7.92198928 -73.34790933 2.75428814 -61.375 -0.875 C-60.70726562 -1.07834961 -60.03953125 -1.28169922 -59.3515625 -1.49121094 C-41.00875901 -6.61901986 -17.93473702 -6.29902959 0 0 Z " fill="#FBFCFD" transform="translate(301,320)"/>
<path d="M0 0 C0.90242432 -0.01450195 1.80484863 -0.02900391 2.73461914 -0.04394531 C12.90738899 0.10895857 20.34401354 3.59807817 27.625 10.5625 C28.945 7.5925 30.265 4.6225 31.625 1.5625 C47.135 1.5625 62.645 1.5625 78.625 1.5625 C75.21077406 14.08132845 75.21077406 14.08132845 73.6875 18.625 C73.38972656 19.52347656 73.09195313 20.42195313 72.78515625 21.34765625 C71.82450031 24.0096759 70.79448539 26.61257273 69.72265625 29.23046875 C67.5278722 34.67387956 65.73934418 40.20965679 64 45.8125 C63.40396624 47.71364215 62.80762093 49.61468665 62.2109375 51.515625 C61.93717285 52.39782715 61.6634082 53.2800293 61.38134766 54.18896484 C60.77342615 56.09671595 60.1068509 57.98572773 59.421875 59.8671875 C58.53898776 62.85342376 58.42425489 65.33195046 58.5 68.4375 C58.51804687 69.40429688 58.53609375 70.37109375 58.5546875 71.3671875 C58.57789063 72.09164062 58.60109375 72.81609375 58.625 73.5625 C64.40371087 74.02479687 67.16814376 73.27654687 71.625 69.5625 C79.14938592 62.80330587 83.16718276 53.45791763 87.625 44.5625 C92.245 46.5425 96.865 48.5225 101.625 50.5625 C98.4166907 66.6040465 83.19595583 83.20087974 70.12890625 92.30078125 C57.21847877 100.41763347 44.72266976 103.08143295 29.625 101.5625 C22.84470807 99.69872307 18.60767361 96.23479272 14.625 90.5625 C13.62844467 89.2265901 12.62911467 87.89273739 11.625 86.5625 C11.16351562 86.99820313 10.70203125 87.43390625 10.2265625 87.8828125 C-0.75915663 97.9132517 -11.89105352 103.1745836 -26.875 103 C-27.79700195 102.99170166 -28.71900391 102.98340332 -29.66894531 102.97485352 C-36.25432088 102.81074474 -41.7187673 102.16875083 -47.375 98.5625 C-48.14714844 98.088125 -48.91929687 97.61375 -49.71484375 97.125 C-57.52794238 91.71693173 -62.90487254 84.04816404 -65.0065918 74.74243164 C-67.65129411 59.09329515 -65.05655393 44.42947808 -56.4375 31.0625 C-55.10619205 29.21250064 -53.75440171 27.37692261 -52.375 25.5625 C-51.90449219 24.90894531 -51.43398438 24.25539063 -50.94921875 23.58203125 C-38.87217614 8.01369018 -19.16889589 0.16221457 0 0 Z " fill="#FCFCFD" transform="translate(622.375,378.4375)"/>
<path d="M0 0 C5.71950409 5.4617582 9.40398556 11.07758231 10.12109375 19.10546875 C10.1582308 30.22182434 8.81835747 36.48564188 1.140625 44.6875 C-5.70307737 50.73622684 -13.72196426 53.13130758 -22.7265625 52.9375 C-32.47006938 52.14622794 -38.72913827 47.98943056 -45.1796875 40.73828125 C-50.57332969 33.09316457 -52.4504337 25.04894094 -51.1796875 15.73828125 C-47.90637118 7.01723135 -42.33642443 -0.26234266 -34.0546875 -4.63671875 C-22.6417512 -9.74308031 -9.67944355 -7.89638816 0 0 Z " fill="#7651AA" transform="translate(1085.1796875,319.26171875)"/>
<path d="M0 0 C4.21599537 1.70433856 6.47878301 4.25182526 9 8 C11.13892765 21.47838967 6.84217478 34.09746434 -1 45 C-5.9176129 51.23140929 -10.83685164 56.46546338 -18 60 C-19.13888672 60.58587891 -19.13888672 60.58587891 -20.30078125 61.18359375 C-26.90593359 64.22807386 -32.80397548 64.44511492 -40 64 C-37.61654584 43.71292503 -31.00347202 15.46227461 -14.515625 2.09375 C-10.17203116 -1.04080226 -5.15358146 -0.41079273 0 0 Z " fill="#6370CF" transform="translate(533,333)"/>
<path d="M0 0 C2.5 1.3125 2.5 1.3125 4 4 C4.83938684 11.61656877 3.49902055 18.18072647 0.9375 25.3125 C0.46268188 26.67435425 0.46268188 26.67435425 -0.02172852 28.0637207 C-4.69014272 41.1142443 -10.38468945 53.33660327 -21 62.625 C-25.12560756 64.51590347 -27.47875046 64.58338704 -32 64 C-34.96858157 61.79259319 -35.82865791 60.51402627 -37 57 C-38.50246493 41.46021987 -33.44323906 26.55484625 -23.70751953 14.38427734 C-10.47153555 -1.35116588 -10.47153555 -1.35116588 0 0 Z " fill="#6965C6" transform="translate(638,398)"/>
<path d="M0 0 C0 0.99 0 1.98 0 3 C-14.40945929 10.18648982 -28.79361559 15.83682156 -44.5625 19.25 C-45.60349854 19.47671387 -45.60349854 19.47671387 -46.66552734 19.70800781 C-63.96106834 23.18674773 -81.09156054 23.28261115 -98.66186523 23.24291992 C-101.44771092 23.24286652 -104.23355173 23.24581638 -107.01939583 23.24860382 C-113.81466147 23.25358503 -120.60987834 23.24790802 -127.40513791 23.23869693 C-135.47688473 23.22821612 -143.54862057 23.2289763 -151.62037273 23.22994814 C-167.23803484 23.23139411 -182.85567187 23.22101401 -198.47332516 23.20529739 C-212.00217516 23.19169836 -225.53101971 23.18253162 -239.05987549 23.17724609 C-326.1052895 23.14214411 -413.14992963 23.00006897 -607 22 C-607 21.67 -607 21.34 -607 21 C-592.7377058 20.20415844 -578.53066238 19.85174807 -564.24766541 19.85523987 C-562.14014624 19.85209627 -560.03262769 19.84851925 -557.92510992 19.84455246 C-552.19636495 19.83496411 -546.46762994 19.83132221 -540.73887813 19.82870948 C-534.53634799 19.82478194 -528.33382638 19.81514686 -522.13130188 19.80615234 C-511.40122033 19.79127596 -500.67114071 19.77969949 -489.94105339 19.77020454 C-473.68747837 19.755718 -457.43392045 19.7329546 -441.18035771 19.70853943 C-434.64218119 19.6987538 -428.10400428 19.68923117 -421.56582737 19.67970943 C-420.8396513 19.67865067 -420.11347523 19.6775919 -419.36529383 19.67650105 C-402.11649728 19.65140147 -384.86769761 19.62888064 -367.61889648 19.60717773 C-366.8650825 19.6062273 -366.11126852 19.60527686 -365.3346117 19.60429762 C-347.74502845 19.58214258 -330.15544426 19.56126079 -312.56585693 19.54260254 C-311.80898913 19.54179879 -311.05212133 19.54099504 -310.27231814 19.54016693 C-306.45542087 19.53611585 -302.63852359 19.53207429 -298.82162631 19.52803367 C-298.06719744 19.52723468 -297.31276856 19.52643569 -296.5354782 19.52561248 C-295.01273951 19.52400018 -293.49000082 19.52238936 -291.96726212 19.52078002 C-266.77148207 19.49410978 -241.57571778 19.4607271 -216.37995641 19.42000187 C-212.81752419 19.41425294 -209.25509184 19.40859422 -205.69265938 19.40299797 C-204.9916776 19.40189617 -204.29069582 19.40079436 -203.56847217 19.39965917 C-192.32538682 19.38221068 -181.08230616 19.37200506 -169.83921009 19.36474552 C-158.53067653 19.35732889 -147.22217434 19.34272851 -135.91365688 19.32131977 C-129.79674385 19.30997083 -123.67987083 19.30179155 -117.56294632 19.30232811 C-111.95160094 19.30275911 -106.34034535 19.29393052 -100.72902305 19.27807831 C-98.71114278 19.27395985 -96.6932523 19.273102 -94.67536997 19.27604241 C-78.3426055 19.29690083 -61.90832586 18.63084638 -45.875 15.25 C-45.06063477 15.08153564 -44.24626953 14.91307129 -43.40722656 14.73950195 C-30.73394459 11.98790447 -18.72019325 7.58143796 -6.94824219 2.18432617 C-2.18086854 0 -2.18086854 0 0 0 Z " fill="#502BA6" transform="translate(1088,530)"/>
<path d="M0 0 C1.35568336 0.00333092 1.35568336 0.00333092 2.73875427 0.00672913 C3.75973709 0.00680466 4.78071991 0.00688019 5.8326416 0.00695801 C6.94304306 0.01211929 8.05344452 0.01728058 9.19749451 0.02259827 C10.89336952 0.02472069 10.89336952 0.02472069 12.62350464 0.02688599 C16.25105891 0.03250433 19.8785525 0.04505994 23.50608826 0.05775452 C25.95856133 0.06276715 28.41103536 0.06733047 30.86351013 0.07142639 C36.89022371 0.08247971 42.91690165 0.09923568 48.94358826 0.12025452 C48.3105099 3.32979233 47.62117921 6.49574619 46.78733826 9.65931702 C46.46056091 10.9006842 46.46056091 10.9006842 46.12718201 12.16712952 C45.90159607 13.01791077 45.67601013 13.86869202 45.44358826 14.74525452 C45.21800232 15.60377014 44.99241638 16.46228577 44.75999451 17.34681702 C43.8908476 20.63826092 43.02049887 23.88952269 41.94358826 27.12025452 C25.11358826 27.12025452 8.28358826 27.12025452 -9.05641174 27.12025452 C-7.93029803 18.11134481 -7.93029803 18.11134481 -6.90016174 14.43666077 C-6.68231018 13.65484436 -6.46445862 12.87302795 -6.24000549 12.06752014 C-6.01441956 11.28054749 -5.78883362 10.49357483 -5.55641174 9.68275452 C-5.33082581 8.86871155 -5.10523987 8.05466858 -4.87281799 7.21595764 C-2.88620721 0.16877916 -2.88620721 0.16877916 0 0 Z " fill="#F7F9FC" transform="translate(322.05641174316406,384.87974548339844)"/>
<path d="M0 0 C0.88602402 0.00222061 1.77204803 0.00444122 2.68492126 0.00672913 C3.68588333 0.00680466 4.6868454 0.00688019 5.71813965 0.00695801 C6.80666733 0.01211929 7.89519501 0.01728058 9.01670837 0.02259827 C10.67928932 0.02472069 10.67928932 0.02472069 12.37545776 0.02688599 C15.93168281 0.03250418 19.48784596 0.04505977 23.04405212 0.05775452 C25.44834809 0.06276717 27.85264504 0.06733048 30.25694275 0.07142639 C36.16516716 0.08247952 42.07335522 0.09923535 47.98155212 0.12025452 C46.6495296 6.12552912 45.30878135 12.12803802 43.91905212 18.12025452 C43.74567322 18.88209045 43.57229431 19.64392639 43.3936615 20.42884827 C42.09645304 26.0053536 42.09645304 26.0053536 40.98155212 27.12025452 C39.41608164 27.21352167 37.8464244 27.23771034 36.27818298 27.23377991 C35.27722092 27.23370438 34.27625885 27.23362885 33.2449646 27.23355103 C32.15643692 27.22838974 31.06790924 27.22322845 29.94639587 27.21791077 C28.83800858 27.21649582 27.72962128 27.21508087 26.58764648 27.21362305 C23.03142143 27.20800485 19.47525829 27.19544926 15.91905212 27.18275452 C13.51475616 27.17774186 11.1104592 27.17317855 8.7061615 27.16908264 C2.79793709 27.15802951 -3.11025097 27.14127368 -9.01844788 27.12025452 C-8.55445201 24.75262769 -8.08793749 22.38554233 -7.62001038 20.01869202 C-7.49054016 19.35667786 -7.36106995 18.6946637 -7.22767639 18.0125885 C-3.69982611 0.22042719 -3.69982611 0.22042719 0 0 Z " fill="#F8F7FB" transform="translate(714.0184478759766,384.87974548339844)"/>
<path d="M0 0 C3.35033106 3.06804153 5.5190501 6.27789193 7.8125 10.1875 C12.61857011 18.19574489 17.86490339 25.22165744 24.71484375 31.58984375 C26 33 26 33 26 35 C26.5775 35.226875 27.155 35.45375 27.75 35.6875 C30.56127916 37.32741284 31.97773345 39.47216681 34 42 C35.33276451 42.66780311 36.66618636 43.33429481 38 44 C39.57355552 45.25711839 41.13423178 46.53039959 42.6875 47.8125 C57.32167983 59.19967644 75.23358128 67.0308484 93 72 C93 72.66 93 73.32 93 74 C94.7325 73.9071875 94.7325 73.9071875 96.5 73.8125 C102.33452664 73.79415243 107.86994956 75.03711889 113.546875 76.24609375 C126.90768002 78.71701319 140.70568881 78.16996512 154.23168945 78.20532227 C156.56855436 78.21491549 158.90541758 78.22492639 161.24227905 78.23532104 C167.55328058 78.26221976 173.86428948 78.28331017 180.1753161 78.30332303 C186.1125237 78.32304839 192.04971216 78.34716439 197.98690345 78.37124526 C209.73726892 78.41876244 221.48764591 78.46206898 233.23803711 78.50268555 C244.64429621 78.5421217 256.05054512 78.58356701 267.45678711 78.62768555 C268.16128966 78.63040982 268.8657922 78.63313409 269.59164331 78.63594092 C273.12635008 78.64962173 276.66105669 78.66334174 280.19576323 78.67708123 C309.46382054 78.79079626 338.73190096 78.89758924 368 79 C368 79.33 368 79.66 368 80 C465.515 80.495 465.515 80.495 565 81 C565 81.33 565 81.66 565 82 C509.37216251 82.09168638 453.74433259 82.16210505 398.11643431 82.20426132 C391.53929267 82.20926375 384.96215118 82.21444108 378.38500977 82.21972656 C377.07569703 82.2207758 375.76638429 82.22182505 374.41739541 82.22290608 C353.25638718 82.24028028 332.09542271 82.27180143 310.93444038 82.30861118 C289.19853387 82.34610385 267.46265017 82.36825341 245.72671264 82.37635398 C232.32972705 82.38182452 218.93286518 82.39906156 205.53591769 82.43166587 C196.33154035 82.45291667 187.12722635 82.45917629 177.9228263 82.45400551 C172.62357222 82.45146008 167.32453332 82.45517966 162.02531815 82.4768219 C134.93690705 82.58190155 108.85946096 82.12452474 83 73 C82.37512695 72.78118164 81.75025391 72.56236328 81.10644531 72.33691406 C58.31117663 64.17798413 38.86494829 51.30876272 22 34 C21.14728516 33.21496094 21.14728516 33.21496094 20.27734375 32.4140625 C12.97948764 25.53695754 0.6377881 12.49401019 -0.25 2.0625 C-0.1675 1.381875 -0.085 0.70125 0 0 Z " fill="#4E5FD5" transform="translate(134,471)"/>
<path d="M0 0 C5.71950409 5.4617582 9.40398556 11.07758231 10.12109375 19.10546875 C10.1582308 30.22182434 8.81835747 36.48564188 1.140625 44.6875 C-5.70307737 50.73622684 -13.72196426 53.13130758 -22.7265625 52.9375 C-32.47006938 52.14622794 -38.72913827 47.98943056 -45.1796875 40.73828125 C-50.57332969 33.09316457 -52.4504337 25.04894094 -51.1796875 15.73828125 C-47.90637118 7.01723135 -42.33642443 -0.26234266 -34.0546875 -4.63671875 C-22.6417512 -9.74308031 -9.67944355 -7.89638816 0 0 Z M-42.12109375 11.02734375 C-45.15831283 15.93620705 -44.70663045 22.19032478 -44.1796875 27.73828125 C-42.43768001 34.38099655 -38.66307958 39.6228872 -33.1796875 43.73828125 C-26.73452335 46.96086333 -19.23301724 46.66301631 -12.3203125 45.0859375 C-6.43311988 43.0075801 -2.39609459 40.13080534 0.8203125 34.73828125 C3.78987019 28.46043306 5.13521449 22.15843201 3.12890625 15.4140625 C1.03781778 10.12072138 -1.37556232 6.97182705 -6.1796875 3.73828125 C-6.74300781 3.34640625 -7.30632812 2.95453125 -7.88671875 2.55078125 C-20.47571863 -5.08212815 -33.49063919 0.61212096 -42.12109375 11.02734375 Z " fill="#F4F2F9" transform="translate(1085.1796875,319.26171875)"/>
<path d="M0 0 C4.56944444 2.13888889 4.56944444 2.13888889 6 5 C6.65438109 10.45317577 5.63293894 13.62856901 2.609375 18.01953125 C-6.04645885 28.67124912 -16.70852944 32.89864926 -30 35 C-30.99 35 -31.98 35 -33 35 C-32.43374423 29.739566 -30.68618122 25.70608898 -28.3125 21.0625 C-27.94946777 20.35174316 -27.58643555 19.64098633 -27.21240234 18.90869141 C-21.71337799 8.39820508 -13.09847429 -1.99807235 0 0 Z " fill="#714DAB" transform="translate(995,395)"/>
<path d="M0 0 C1.96366372 0.00028308 3.92732755 0.00012178 5.89099121 -0.0004425 C11.14785402 -0.00072576 16.40469334 0.00509364 21.66155076 0.01213145 C27.18278775 0.01844454 32.70402546 0.01897501 38.2252655 0.02015686 C48.64749043 0.02324697 59.06970468 0.03142862 69.49192494 0.04150635 C81.37126548 0.05274013 93.25060658 0.05819613 105.12995112 0.06320179 C129.53610285 0.07361355 153.94224516 0.09116738 178.34838867 0.11352539 C178.34838867 0.77352539 178.34838867 1.43352539 178.34838867 2.11352539 C282.62838867 2.11352539 386.90838867 2.11352539 494.34838867 2.11352539 C494.34838867 2.44352539 494.34838867 2.77352539 494.34838867 3.11352539 C446.80201661 3.14412079 399.25564307 3.16423799 351.70926249 3.17538214 C348.98219625 3.17602332 346.25513001 3.17668221 343.52806377 3.17734146 C256.84074192 3.19796251 170.15428935 3.18243317 47.47338867 2.61352539 C46.30602456 2.60755167 45.13866045 2.60157796 43.93592167 2.59542322 C15.40665883 2.44916024 -13.12252273 2.29058971 -41.65161133 2.11352539 C-41.65161133 1.78352539 -41.65161133 1.45352539 -41.65161133 1.11352539 C-27.75492868 0.34189808 -13.91672814 -0.02873864 0 0 Z " fill="#5A45BC" transform="translate(522.651611328125,549.886474609375)"/>
<path d="M0 0 C4.3003125 -0.061875 4.3003125 -0.061875 8.6875 -0.125 C9.58170654 -0.14320801 10.47591309 -0.16141602 11.3972168 -0.18017578 C15.68409387 -0.20998249 19.15235004 -0.13430103 23 2 C25.65249788 5.09458086 26.02498002 6.517053 25.8125 10.625 C25 14 25 14 23 17 C22.01 17 21.02 17 20 17 C21.80927518 20.7012076 23.6064759 24.35349612 25.75 27.875 C27 30 27 30 27 32 C23.9375 32.6875 23.9375 32.6875 20 32 C17.96414004 29.28844514 16.41599962 26.52051797 14.87109375 23.50390625 C13.17205227 20.68894638 13.17205227 20.68894638 9.78515625 20.15234375 C8.86605469 20.10207031 7.94695312 20.05179687 7 20 C7 23.96 7 27.92 7 32 C4.69 32 2.38 32 0 32 C0 21.44 0 10.88 0 0 Z " fill="#F3F0F7" transform="translate(1052,326)"/>
<path d="M0 0 C3.77606237 0.00877765 7.55211964 0.00570442 11.32818937 0.00419545 C17.84360115 0.00315549 24.35897234 0.00933801 30.87437391 0.02067113 C40.29411294 0.03704534 49.71383268 0.04214621 59.1335844 0.04464711 C74.42289515 0.0490057 89.71218436 0.0622645 105.00148344 0.08125234 C119.83839642 0.09965899 134.67530351 0.11379196 149.51222563 0.12226796 C150.42942734 0.12279341 151.34662906 0.12331886 152.29162477 0.12386023 C156.89374879 0.12647063 161.49587286 0.12899796 166.09799695 0.13148403 C204.17293721 0.15215924 242.24785342 0.18733418 280.3227725 0.23213124 C280.3227725 0.56213124 280.3227725 0.89213124 280.3227725 1.23213124 C145.6827725 1.72713124 145.6827725 1.72713124 8.3227725 2.23213124 C49.4077725 2.72713124 49.4077725 2.72713124 91.3227725 3.23213124 C91.3227725 3.56213124 91.3227725 3.89213124 91.3227725 4.23213124 C90.34544849 4.23571377 90.34544849 4.23571377 89.34838057 4.23936868 C73.40191882 4.29883121 57.45562664 4.37457641 41.50933027 4.46784616 C33.79741878 4.51257139 26.08555109 4.55203771 18.37355375 4.57856679 C11.64189339 4.60173749 4.91037437 4.63534242 -1.82117343 4.6808328 C-5.37652143 4.70451177 -8.93173169 4.72340437 -12.48715639 4.72974515 C-29.58031768 4.76426247 -46.35945152 5.03183595 -62.99601412 9.32388234 C-66.40119568 10.16402718 -69.19277387 10.40635392 -72.6772275 10.23213124 C-72.3472275 9.24213124 -72.0172275 8.25213124 -71.6772275 7.23213124 C-68.77453096 5.91500809 -65.59032816 5.37827609 -62.4897275 4.66963124 C-61.67697359 4.46144765 -60.86421968 4.25326406 -60.02683687 4.03877187 C-40.45615423 -0.57545412 -19.96996936 -0.05844493 0 0 Z " fill="#7187FF" transform="translate(296.67722749710083,259.7678687572479)"/>
<path d="M0 0 C55.55151648 -0.06874331 111.10302871 -0.12156794 166.65457941 -0.15319599 C173.22056603 -0.15694788 179.78655257 -0.16083087 186.35253906 -0.16479492 C188.31320265 -0.16597532 188.31320265 -0.16597532 190.31347559 -0.16717956 C211.44740099 -0.18021528 232.58130178 -0.20385899 253.7152126 -0.23145839 C275.41833546 -0.25956368 297.12144548 -0.27618708 318.8245858 -0.28226548 C332.20466629 -0.28637131 345.5846772 -0.29931522 358.96473627 -0.3237494 C368.15366784 -0.3396699 377.3425637 -0.34438613 386.53150804 -0.34050413 C391.82427758 -0.33859238 397.11692598 -0.34141642 402.40967369 -0.35761642 C453.9844286 -0.5077857 453.9844286 -0.5077857 463 4 C463 4.66 463 5.32 463 6 C464.98 6.495 464.98 6.495 467 7 C459.92590855 7.27741535 452.89901282 6.64117486 446 5 C445.67 4.34 445.34 3.68 445 3 C432.14271896 2.26380421 419.33757709 1.84900372 406.46026611 1.84178162 C404.68996375 1.83719923 402.91966244 1.83219686 401.14936233 1.82681805 C396.34888276 1.81341804 391.54841015 1.80587222 386.74791694 1.79939139 C381.54712102 1.79130631 376.34633923 1.77763714 371.14555359 1.76467896 C362.15608417 1.7430299 353.16661324 1.72484378 344.17713165 1.70907402 C331.1801787 1.68626906 318.18324145 1.65814158 305.18630192 1.62875474 C284.09474861 1.58120826 263.00318884 1.53790943 241.91162109 1.49731445 C221.43472797 1.45789337 200.95784056 1.41645153 180.48095703 1.37231445 C179.21673838 1.36959018 177.95251973 1.36686591 176.64999142 1.36405908 C170.30717376 1.35037852 163.96435618 1.33665846 157.62153864 1.32291877 C105.08103772 1.20915759 52.54052439 1.10230369 0 1 C0 0.67 0 0.34 0 0 Z " fill="#755BD1" transform="translate(577,260)"/>
<path d="M0 0 C3.35033106 3.06804153 5.5190501 6.27789193 7.8125 10.1875 C12.61857011 18.19574489 17.86490339 25.22165744 24.71484375 31.58984375 C26 33 26 33 26 35 C26.5775 35.226875 27.155 35.45375 27.75 35.6875 C30.56127916 37.32741284 31.97773345 39.47216681 34 42 C35.33276451 42.66780311 36.66618636 43.33429481 38 44 C39.57355552 45.25711839 41.13423178 46.53039959 42.6875 47.8125 C57.32167983 59.19967644 75.23358128 67.0308484 93 72 C93 72.66 93 73.32 93 74 C95.97 74.66 98.94 75.32 102 76 C102 76.66 102 77.32 102 78 C71.06965954 71.98026665 43.91800191 56.49479143 22 34 C21.14728516 33.21496094 21.14728516 33.21496094 20.27734375 32.4140625 C12.97948764 25.53695754 0.6377881 12.49401019 -0.25 2.0625 C-0.1675 1.381875 -0.085 0.70125 0 0 Z M98 74 C102 75 102 75 102 75 Z " fill="#4C7BE1" transform="translate(134,471)"/>
<path d="M0 0 C0.80606059 2.32335111 1.12767874 3.60160689 0.36669922 5.97607422 C-0.15899658 7.00498779 -0.15899658 7.00498779 -0.6953125 8.0546875 C-1.07921143 8.82699707 -1.46311035 9.59930664 -1.85864258 10.39501953 C-2.27654053 11.21341309 -2.69443848 12.03180664 -3.125 12.875 C-12.72681182 32.44942156 -17.54636009 51.24614155 -18 73 C-18.03996094 74.00546875 -18.07992187 75.0109375 -18.12109375 76.046875 C-18.4738627 89.74261077 -15.82713797 102.75712513 -12.12109375 115.85546875 C-11.17727394 119.21356893 -10.49088426 122.54174798 -10 126 C-10.33 125.34 -10.66 124.68 -11 124 C-11.99 123.67 -12.98 123.34 -14 123 C-26.8300732 94.69836794 -24.59727789 55.967686 -13.984375 27.4296875 C-10.20652837 17.70516982 -6.26095365 8.41504382 0 0 Z " fill="#547DE3" transform="translate(138,332)"/>
<path d="M0 0 C0 0.66 0 1.32 0 2 C-0.969375 2.3403125 -1.93875 2.680625 -2.9375 3.03125 C-24.26790726 10.67439958 -42.77530601 21.04807484 -59 37 C-59.58201172 37.56299805 -60.16402344 38.12599609 -60.76367188 38.70605469 C-67.23740676 44.97084893 -73.55322258 51.13472272 -78.765625 58.5234375 C-79.37664062 59.25433594 -79.37664062 59.25433594 -80 60 C-80.66 60 -81.32 60 -82 60 C-79.94476601 46.11059607 -59.67421172 30.5297711 -49.13818359 22.67822266 C-39.14462955 15.46683377 -28.93625337 9.18267911 -17.6875 4.125 C-17.02927246 3.82609863 -16.37104492 3.52719727 -15.69287109 3.21923828 C-10.53106195 0.98354193 -5.66456774 0 0 0 Z " fill="#4A78E2" transform="translate(223,270)"/>
<path d="M0 0 C1.07345673 0.00141495 2.14691345 0.0028299 3.25289917 0.00428772 C6.6451916 0.009837 10.03741538 0.02237978 13.4296875 0.03515625 C15.74479071 0.04017781 18.05989496 0.04473957 20.375 0.04882812 C26.01825216 0.05978975 31.66146492 0.07647652 37.3046875 0.09765625 C37.3046875 0.42765625 37.3046875 0.75765625 37.3046875 1.09765625 C78.3896875 1.59265625 78.3896875 1.59265625 120.3046875 2.09765625 C120.3046875 2.42765625 120.3046875 2.75765625 120.3046875 3.09765625 C119.32736349 3.10123878 119.32736349 3.10123878 118.33029556 3.10489368 C102.38383381 3.16435622 86.43754164 3.24010142 70.49124527 3.33337116 C62.77933378 3.3780964 55.06746608 3.41756271 47.35546875 3.4440918 C40.62380838 3.4672625 33.89228937 3.50086743 27.16074157 3.54635781 C23.60539356 3.57003678 20.0501833 3.58892937 16.49475861 3.59527016 C-0.59840268 3.62978748 -17.37753652 3.89736096 -34.01409912 8.18940735 C-37.41928068 9.02955218 -40.21085888 9.27187893 -43.6953125 9.09765625 C-43.3653125 8.10765625 -43.0353125 7.11765625 -42.6953125 6.09765625 C-40.81274414 5.31396484 -40.81274414 5.31396484 -38.35546875 4.74609375 C-37.45634766 4.5346875 -36.55722656 4.32328125 -35.63085938 4.10546875 C-34.68275391 3.89664062 -33.73464844 3.6878125 -32.7578125 3.47265625 C-31.84451172 3.25609375 -30.93121094 3.03953125 -29.99023438 2.81640625 C-19.98724801 0.52272785 -10.24219101 -0.05181607 0 0 Z " fill="#5480E4" transform="translate(267.6953125,260.90234375)"/>
<path d="M0 0 C0 0.99 0 1.98 0 3 C-24.03426173 14.98670775 -48.46632002 22.211204 -75.46875 22.09765625 C-77.38282654 22.09553383 -77.38282654 22.09553383 -79.33557129 22.09336853 C-82.70238156 22.08874011 -86.06912207 22.07977971 -89.43591309 22.06866455 C-92.88174848 22.0583733 -96.32759112 22.0538545 -99.7734375 22.04882812 C-106.51564403 22.03783326 -113.25781799 22.0211208 -120 22 C-120 21.67 -120 21.34 -120 21 C-105.48 20.67 -90.96 20.34 -76 20 C-76 19.67 -76 19.34 -76 19 C-74.18242188 18.85304688 -74.18242188 18.85304688 -72.328125 18.703125 C-49.30690974 16.70773646 -27.99429342 11.83335466 -6.94824219 2.18432617 C-2.18086854 0 -2.18086854 0 0 0 Z " fill="#5A2FA1" transform="translate(1088,530)"/>
<path d="M0 0 C2.20870813 1.49087799 3.84321471 2.62487394 5.5 4.6875 C5.79296875 6.94921875 5.79296875 6.94921875 5.6875 9.375 C5.64689453 10.58736328 5.64689453 10.58736328 5.60546875 11.82421875 C5.55326172 12.74654297 5.55326172 12.74654297 5.5 13.6875 C4.84 14.0175 4.18 14.3475 3.5 14.6875 C3.47421875 14.08421875 3.4484375 13.4809375 3.421875 12.859375 C3.06624172 7.72449698 3.06624172 7.72449698 0.8125 3.1875 C-2.05519588 1.32737294 -4.08966466 0.82959731 -7.5 0.6875 C-8.10199219 0.98914063 -8.70398438 1.29078125 -9.32421875 1.6015625 C-11.9502085 2.91220011 -14.43758259 3.36177841 -17.3125 3.9375 C-23.27261663 5.41854225 -26.36991685 7.24555343 -30.5 11.6875 C-31.4706836 12.67643989 -32.44210803 13.66465288 -33.4140625 14.65234375 C-39.16242567 20.59202514 -43.84216669 26.22192218 -47.5 33.6875 C-48.75748429 35.76321037 -50.08306446 37.71391121 -51.5 39.6875 C-51.83 39.6875 -52.16 39.6875 -52.5 39.6875 C-52.22908762 27.49644294 -41.5904306 17.78982597 -33.5 9.68359375 C-24.49403454 1.27681551 -12.21033171 -4.57887439 0 0 Z " fill="#654AA3" transform="translate(892.5,335.3125)"/>
<path d="M0 0 C6.26639519 -0.14495315 11.97162277 0.36324726 18.12792969 1.4543457 C29.39996315 3.28370894 40.55420975 3.57069498 51.953125 3.73046875 C54.07690544 3.76987988 56.20066457 3.81045522 58.32440186 3.85212708 C63.84119378 3.95732379 69.35812592 4.04699435 74.87524414 4.13311768 C80.53419213 4.22430849 86.19285555 4.33061723 91.8515625 4.43554688 C102.90081764 4.63825879 113.95028106 4.824523 125 5 C125 5.33 125 5.66 125 6 C112.62910615 6.02328651 100.25821761 6.04099757 87.88730621 6.05181217 C82.14149698 6.05700558 76.39570287 6.06403804 70.64990234 6.07543945 C65.09316359 6.08639529 59.53643928 6.09230343 53.97969055 6.09487724 C51.87168653 6.09670881 49.7636832 6.10028478 47.65568542 6.10573006 C14.20357152 6.1886161 14.20357152 6.1886161 4 3 C4 2.34 4 1.68 4 1 C2.68 0.67 1.36 0.34 0 0 Z " fill="#3E6BDD" transform="translate(232,546)"/>
<path d="M0 0 C16.83068568 -0.07051862 33.66132241 -0.1231957 50.49212074 -0.15543652 C58.30941371 -0.17081369 66.12661415 -0.19172479 73.94384766 -0.22631836 C80.76846684 -0.25650455 87.59301893 -0.27564118 94.41770303 -0.28226548 C98.02124568 -0.28612909 101.62459662 -0.29500993 105.22807693 -0.31719017 C146.872833 -0.5635835 146.872833 -0.5635835 156 4 C156 4.66 156 5.32 156 6 C157.98 6.495 157.98 6.495 160 7 C152.92590855 7.27741535 145.89901282 6.64117486 139 5 C138.67 4.34 138.34 3.68 138 3 C122.07730831 2.02733104 106.1837238 1.79059846 90.234375 1.68359375 C87.6173677 1.66296867 85.0003633 1.64197099 82.38336182 1.62062073 C76.2570879 1.57125684 70.1307909 1.526116 64.00447297 1.48259836 C57.01499813 1.43273581 50.02556385 1.37800401 43.03612852 1.32291877 C28.69079063 1.20996629 14.34541301 1.10294802 0 1 C0 0.67 0 0.34 0 0 Z " fill="#7551BC" transform="translate(884,260)"/>
<path d="M0 0 C14.26620527 0.5058938 25.53592781 5.40814658 38 12 C39.45792969 12.76183594 39.45792969 12.76183594 40.9453125 13.5390625 C45.75120615 16.09946738 50.46574651 18.80666134 55.125 21.625 C56.49011719 22.44871094 56.49011719 22.44871094 57.8828125 23.2890625 C60.20844417 25.1684475 60.68113641 26.07920956 61 29 C57.96368839 28.38017247 55.74291719 27.39419838 53.12890625 25.7421875 C52.39712158 25.28489258 51.66533691 24.82759766 50.91137695 24.35644531 C49.74868286 23.62312988 49.74868286 23.62312988 48.5625 22.875 C46.92301499 21.86533405 45.28238519 20.85752468 43.640625 19.8515625 C40.99905906 18.23064996 38.36326644 16.60242234 35.734375 14.9609375 C27.81715587 10.32491881 19.59816333 7.83036068 10.78051758 5.39550781 C9.33841919 4.99090332 9.33841919 4.99090332 7.8671875 4.578125 C7.00206543 4.34512695 6.13694336 4.11212891 5.24560547 3.87207031 C2.85140849 2.94229519 1.65235319 1.93640411 0 0 Z " fill="#6F42AB" transform="translate(1045,267)"/>
<path d="M0 0 C-1.65 1.65 -3.3 3.3 -5 5 C-5.495 4.01 -5.495 4.01 -6 3 C-6.51949219 3.26554687 -7.03898437 3.53109375 -7.57421875 3.8046875 C-13.62715299 6.87031408 -13.62715299 6.87031408 -16.875 8 C-19.13995863 8.794416 -19.13995863 8.794416 -19.90234375 10.85546875 C-21.17117759 13.33443592 -22.54520575 14.54900041 -24.6875 16.3125 C-30.67011963 21.39392648 -35.78869239 26.35909184 -40 33 C-40.33 33 -40.66 33 -41 33 C-40.33224361 24.65304516 -36.35096408 19.80919269 -30.53125 14.15234375 C-23.42672153 8.11130179 -9.67562202 -3.28358214 0 0 Z " fill="#596FC4" transform="translate(456,340)"/>
<path d="M0 0 C0.99 0.33 1.98 0.66 3 1 C2.34515625 1.40089844 1.6903125 1.80179687 1.015625 2.21484375 C-22.12129786 16.62640164 -41.12891779 34.75676174 -48 62 C-48.66 62 -49.32 62 -50 62 C-49.65364428 54.71209841 -47.91555374 50.21586137 -44 44.125 C-43.08117688 42.64977843 -42.16441865 41.17326823 -41.25 39.6953125 C-40.84265625 39.05609863 -40.4353125 38.41688477 -40.015625 37.75830078 C-38.84340461 35.86467478 -38.84340461 35.86467478 -38 33 C-37.34 33 -36.68 33 -36 33 C-35.67 31.35 -35.34 29.7 -35 28 C-34.34 28 -33.68 28 -33 28 C-33 27.34 -33 26.68 -33 26 C-31.52307016 24.7528148 -30.04202596 23.50964765 -28.52734375 22.30859375 C-26.70225929 20.74490246 -25.42509913 18.92388382 -24 17 C-23.34 17 -22.68 17 -22 17 C-22 16.34 -22 15.68 -22 15 C-19.98828125 13.16015625 -19.98828125 13.16015625 -17.3125 11.0625 C-16.44238281 10.37285156 -15.57226562 9.68320312 -14.67578125 8.97265625 C-12.18659521 7.13756289 -9.67388847 5.54849985 -7 4 C-6.36835937 3.60296875 -5.73671875 3.2059375 -5.0859375 2.796875 C-3.43561073 1.78708602 -1.71758186 0.890598 0 0 Z " fill="#6E5AB5" transform="translate(817,328)"/>
<path d="M0 0 C2 1 2 1 3.5 4.5 C7.58509394 17.56400601 9.58690425 36.04684082 5 49 C4.01 49.495 4.01 49.495 3 50 C3.01047363 49.35675781 3.02094727 48.71351563 3.03173828 48.05078125 C3.21351308 35.14707122 2.93041984 22.76140138 1 10 C0.62952926 6.66983442 0.30480041 3.33676239 0 0 Z " fill="#663DA6" transform="translate(1157,373)"/>
<path d="M0 0 C0.66 0 1.32 0 2 0 C1.24432201 15.11355989 -7.78590217 31.19443715 -17 43 C-17.66 41.68 -18.32 40.36 -19 39 C-18.46375 38.401875 -17.9275 37.80375 -17.375 37.1875 C-9.2654808 26.30367159 -4.12086439 12.86760107 0 0 Z " fill="#6439A1" transform="translate(1155,446)"/>
<path d="M0 0 C0 0.99 0 1.98 0 3 C-14.39072034 10.17714407 -29.02695878 16.42370303 -45 19 C-45 18.34 -45 17.68 -45 17 C-42.03 16.34 -39.06 15.68 -36 15 C-36 14.34 -36 13.68 -36 13 C-34.88625 12.64808594 -33.7725 12.29617188 -32.625 11.93359375 C-23.84855658 9.11065924 -15.33625555 6.03390358 -6.953125 2.18530273 C-2.17666878 0 -2.17666878 0 0 0 Z " fill="#6235A6" transform="translate(1088,530)"/>
<path d="M0 0 C1.18529297 0.01353516 1.18529297 0.01353516 2.39453125 0.02734375 C3.28205078 0.04474609 3.28205078 0.04474609 4.1875 0.0625 C0.7522952 2.35263653 -0.797831 2.24092973 -4.8125 2.0625 C-5.1425 2.7225 -5.4725 3.3825 -5.8125 4.0625 C-18.42663339 6.31502382 -31.6149467 6.01084095 -43.8125 2.0625 C-43.8125 1.7325 -43.8125 1.4025 -43.8125 1.0625 C-42.80872314 1.06773682 -41.80494629 1.07297363 -40.77075195 1.07836914 C-37.03410743 1.0965174 -33.29746679 1.10796787 -29.56079102 1.11743164 C-27.94587549 1.12244942 -26.33096448 1.12926511 -24.71606445 1.13793945 C-22.39012535 1.15011714 -20.0642465 1.15575395 -17.73828125 1.16015625 C-17.02037918 1.16531754 -16.30247711 1.17047882 -15.56282043 1.17579651 C-10.26739461 1.17638441 -5.26733929 -0.078617 0 0 Z " fill="#6948A2" transform="translate(994.8125,480.9375)"/>
<path d="M0 0 C-0.66 0.495 -1.32 0.99 -2 1.5 C-9.06747845 7.38956538 -14.25569903 13.45057702 -18.94238281 21.33935547 C-21.69939482 25.89979827 -21.69939482 25.89979827 -25 27 C-24.08131527 17.02782548 -15.35258653 8.36208264 -8 2 C-4.77208445 -0.1519437 -3.71599191 -0.20086443 0 0 Z " fill="#5B58B3" transform="translate(633,399)"/>
<path d="M0 0 C-17.57085531 6.96903122 -37.35565011 10.39569351 -56 6 C-56.99 5.34 -57.98 4.68 -59 4 C-58.11554199 4.02618408 -57.23108398 4.05236816 -56.31982422 4.0793457 C-38.91355363 4.52516835 -22.7725489 4.57492626 -5.94995117 -0.65454102 C-3.68025913 -1.05664622 -2.17554203 -0.70005216 0 0 Z " fill="#644AA5" transform="translate(880,476)"/>
<path d="M0 0 C0.66 0.33 1.32 0.66 2 1 C-4.53783362 8.62102499 -4.53783362 8.62102499 -8.1875 12 C-11.03621959 14.76493372 -12.6144246 17.76613045 -14.23828125 21.36328125 C-15 23 -15 23 -16 24 C-16.23287008 25.68183948 -16.41264166 27.3712416 -16.5625 29.0625 C-16.64628906 29.98160156 -16.73007813 30.90070313 -16.81640625 31.84765625 C-16.87699219 32.55792969 -16.93757812 33.26820313 -17 34 C-17.33 34 -17.66 34 -18 34 C-18.81787037 24.47332482 -17.88879827 17.7081018 -12 10 C-8.31697358 6.16664597 -4.41845201 2.94563467 0 0 Z " fill="#567ED1" transform="translate(245,402)"/>
<path d="M0 0 C0.91711258 0.00888245 1.83422516 0.01776489 2.77912903 0.0269165 C3.81998154 0.02721863 4.86083405 0.02752075 5.93322754 0.02783203 C7.61615654 0.05879974 7.61615654 0.05879974 9.33308411 0.09039307 C10.4830336 0.09605286 11.63298309 0.10171265 12.81777954 0.10754395 C16.49647876 0.12996333 20.17420973 0.18017227 23.85261536 0.23101807 C26.34413777 0.25107577 28.83567542 0.2693278 31.32722473 0.28570557 C37.4401862 0.32984641 43.55258162 0.39681458 49.66511536 0.48101807 C49.66511536 0.81101807 49.66511536 1.14101807 49.66511536 1.48101807 C24.42011536 1.97601807 24.42011536 1.97601807 -1.33488464 2.48101807 C-4.94756131 15.45128931 -4.94756131 15.45128931 -8.33488464 28.48101807 C-8.66488464 28.48101807 -8.99488464 28.48101807 -9.33488464 28.48101807 C-8.90935771 22.81479103 -8.20887284 17.86873414 -6.33488464 12.48101807 C-6.16601981 11.10865622 -6.02142821 9.73315479 -5.89738464 8.35601807 C-5.26905995 4.02755906 -4.636069 0.95509341 0 0 Z " fill="#5278D7" transform="translate(321.3348846435547,383.51898193359375)"/>
<path d="M0 0 C0.78503906 0.26554688 1.57007813 0.53109375 2.37890625 0.8046875 C3.68794922 1.23587891 3.68794922 1.23587891 5.0234375 1.67578125 C5.98636719 2.00707031 6.94929687 2.33835937 7.94140625 2.6796875 C10.14973229 3.40887624 12.35806558 4.13804306 14.56640625 4.8671875 C16.35858087 5.46984572 18.15043415 6.07346498 19.94140625 6.6796875 C19.94140625 7.3396875 19.94140625 7.9996875 19.94140625 8.6796875 C22.91140625 9.3396875 25.88140625 9.9996875 28.94140625 10.6796875 C28.94140625 11.3396875 28.94140625 11.9996875 28.94140625 12.6796875 C16.95732122 10.26487187 6.10514888 6.65377057 -5.05859375 1.6796875 C-2.05859375 -0.3203125 -2.05859375 -0.3203125 0 0 Z M24.94140625 8.6796875 C28.94140625 9.6796875 28.94140625 9.6796875 28.94140625 9.6796875 Z " fill="#4A76E2" transform="translate(207.05859375,536.3203125)"/>
<path d="M0 0 C1.81242052 -0.02687279 3.62495233 -0.04633715 5.4375 -0.0625 C6.44683594 -0.07410156 7.45617188 -0.08570313 8.49609375 -0.09765625 C11 0 11 0 12 1 C12.1875 3.4375 12.1875 3.4375 12 6 C10 8 10 8 7.6171875 8.1953125 C6.71226563 8.17210937 5.80734375 8.14890625 4.875 8.125 C3.50988281 8.09792969 3.50988281 8.09792969 2.1171875 8.0703125 C1.41851563 8.04710937 0.71984375 8.02390625 0 8 C0 5.36 0 2.72 0 0 Z " fill="#815AB8" transform="translate(1059,332)"/>
<path d="M0 0 C0.66 0.33 1.32 0.66 2 1 C0.44296681 5.67109958 -3.26379812 7.94074062 -7 11 C-7.65742187 11.54398437 -8.31484375 12.08796875 -8.9921875 12.6484375 C-13.53227703 16.24039588 -18.38382778 19.3937969 -24 21 C-24.99 20.67 -25.98 20.34 -27 20 C-26.26136719 19.59910156 -25.52273438 19.19820313 -24.76171875 18.78515625 C-15.52965933 13.61191838 -7.41233091 7.60107082 0 0 Z " fill="#5F52AD" transform="translate(707,457)"/>
<path d="M0 0 C0 1.65 0 3.3 0 5 C-0.87398437 5.09087891 -0.87398437 5.09087891 -1.765625 5.18359375 C-4.95727202 6.34977247 -5.88349028 8.25887899 -7.75 11.0625 C-14.28197889 20.34415382 -21.42085589 27.3765222 -32 32 C-32.99 31.67 -33.98 31.34 -35 31 C-33.69675781 30.22076172 -33.69675781 30.22076172 -32.3671875 29.42578125 C-22.03678562 23.52765682 -22.03678562 23.52765682 -14 15 C-13.34 15 -12.68 15 -12 15 C-11.79375 14.319375 -11.5875 13.63875 -11.375 12.9375 C-9.8555078 9.69131212 -4.04480569 0 0 0 Z " fill="#7357AE" transform="translate(916,421)"/>
<path d="M0 0 C0.46148438 0.37511719 0.92296875 0.75023437 1.3984375 1.13671875 C8.77082519 6.9209834 16.78146188 11.94734935 26.32421875 12.31640625 C27.86625977 12.37924805 27.86625977 12.37924805 29.43945312 12.44335938 C31.04723633 12.50233398 31.04723633 12.50233398 32.6875 12.5625 C33.77095703 12.60568359 34.85441406 12.64886719 35.97070312 12.69335938 C38.64700791 12.79946838 41.32340526 12.90152361 44 13 C40.60447556 16.39552444 35.90572474 15.98309603 31.29296875 16.1484375 C20.47311961 16.08422475 10.85033429 11.84152224 2.72265625 4.8671875 C1 3 1 3 0 0 Z " fill="#5E5FBB" transform="translate(564,468)"/>
<path d="M0 0 C1.67263499 4.07514706 0.19946593 6.91407516 -1.3125 10.875 C-1.76238281 12.06867188 -2.21226562 13.26234375 -2.67578125 14.4921875 C-3.11277344 15.64976562 -3.54976562 16.80734375 -4 18 C-5.5363261 22.35912595 -6.4482309 26.4019242 -7 31 C-7.66 31 -8.32 31 -9 31 C-9.40812577 23.62350465 -8.06857928 17.93317137 -5.625 11 C-5.30789063 10.04738281 -4.99078125 9.09476562 -4.6640625 8.11328125 C-2.27593858 1.13796929 -2.27593858 1.13796929 0 0 Z " fill="#665AB2" transform="translate(689,419)"/>
<path d="M0 0 C-0.33 1.32 -0.66 2.64 -1 4 C-4.03949302 4.67684298 -7.08189165 5.33961872 -10.125 6 C-11.40890625 6.28617187 -11.40890625 6.28617187 -12.71875 6.578125 C-17.22732794 7.54920333 -21.35645604 8.24359575 -26 8 C-25.67 7.01 -25.34 6.02 -25 5 C-23.0222168 4.20043945 -23.0222168 4.20043945 -20.44921875 3.61328125 C-19.52302734 3.39736328 -18.59683594 3.18144531 -17.64257812 2.95898438 C-16.66740234 2.74564453 -15.69222656 2.53230469 -14.6875 2.3125 C-13.24213867 1.97508789 -13.24213867 1.97508789 -11.76757812 1.63085938 C-7.69966581 0.70338664 -4.19666112 0 0 0 Z " fill="#5583E9" transform="translate(250,262)"/>
<path d="M0 0 C1.43733002 2.67226128 2.36386823 5.07602812 2.96484375 8.046875 C3.12533203 8.81 3.28582031 9.573125 3.45117188 10.359375 C3.77218313 11.93735801 4.09250979 13.51548047 4.41210938 15.09375 C5.23501041 19.00171028 6.18202435 22.62460465 7.69140625 26.328125 C8.9864324 29.96192973 9.11558469 30.6050272 8 34 C8 33.34 8 32.68 8 32 C7.01 31.67 6.02 31.34 5 31 C0.25147975 21.32284322 0.23657192 10.5392792 0 0 Z " fill="#517BE1" transform="translate(119,424)"/>
<path d="M0 0 C1.35568336 0.00333092 1.35568336 0.00333092 2.73875427 0.00672913 C3.75973709 0.00680466 4.78071991 0.00688019 5.8326416 0.00695801 C6.94304306 0.01211929 8.05344452 0.01728058 9.19749451 0.02259827 C10.89336952 0.02472069 10.89336952 0.02472069 12.62350464 0.02688599 C16.25105891 0.03250433 19.8785525 0.04505994 23.50608826 0.05775452 C25.95856133 0.06276715 28.41103536 0.06733047 30.86351013 0.07142639 C36.89022371 0.08247971 42.91690165 0.09923568 48.94358826 0.12025452 C48.94358826 0.45025452 48.94358826 0.78025452 48.94358826 1.12025452 C32.44358826 1.45025452 15.94358826 1.78025452 -1.05641174 2.12025452 C-2.37641174 6.41025452 -3.69641174 10.70025452 -5.05641174 15.12025452 C-5.71641174 15.12025452 -6.37641174 15.12025452 -7.05641174 15.12025452 C-4.0078869 0.23437257 -4.0078869 0.23437257 0 0 Z " fill="#6554B6" transform="translate(713.0564117431641,383.87974548339844)"/>
<path d="M0 0 C0.66 0 1.32 0 2 0 C5.18491631 5.86024602 5.68811526 10.50025083 4 17 C2.64664506 19.91890839 1.15450113 22.59716073 -1 25 C-1.66 25 -2.32 25 -3 25 C-3.226875 25.61875 -3.45375 26.2375 -3.6875 26.875 C-5 29 -5 29 -7 30.3125 C-11.42605613 31.32680453 -15.54229835 30.64052412 -20 30 C-20 29.67 -20 29.34 -20 29 C-19.34773438 28.89042969 -18.69546875 28.78085937 -18.0234375 28.66796875 C-9.47762296 27.11762187 -4.18623146 25.112546 1 18 C2.74448199 12.76655404 2.67853621 7.12042565 1 1.875 C0.67 1.25625 0.34 0.6375 0 0 Z " fill="#6287D5" transform="translate(323,336)"/>
<path d="M0 0 C5.72699782 1.31966272 8.16595133 3.84683285 11.6875 8.25 C12.15994141 8.81074219 12.63238281 9.37148438 13.11914062 9.94921875 C15.96720532 13.40843898 18.3224935 16.80326997 20 21 C19.67 21.99 19.34 22.98 19 24 C18.35933594 23.154375 17.71867187 22.30875 17.05859375 21.4375 C9.69509684 10.37256037 9.69509684 10.37256037 0 2 C0 1.34 0 0.68 0 0 Z " fill="#6E44AD" transform="translate(1118,307)"/>
<path d="M0 0 C1.56480313 4.69440938 -0.45536687 8.42888094 -2 13 C-2.32033203 13.94883057 -2.64066406 14.89766113 -2.97070312 15.87524414 C-6.61525954 26.27310653 -11.06144885 34.25048178 -20 41 C-18.67309094 38.14494449 -17.16043795 35.82165128 -15.1875 33.375 C-7.71066479 23.46006636 -4.11412744 11.58090316 0 0 Z " fill="#5976CF" transform="translate(424,422)"/>
<path d="M0 0 C7.24158565 0.35000997 13.34405447 1.05602409 20 4 C20 4.66 20 5.32 20 6 C21.134375 6.28875 22.26875 6.5775 23.4375 6.875 C24.613125 7.24625 25.78875 7.6175 27 8 C27.33 8.66 27.66 9.32 28 10 C21.6044678 8.47890045 15.24820456 6.84357661 8.9375 5 C7.87402344 4.690625 6.81054688 4.38125 5.71484375 4.0625 C3.07379338 3.02888029 1.77693461 2.16429405 0 0 Z " fill="#6336A7" transform="translate(1045,267)"/>
<path d="M0 0 C0.99 0.495 0.99 0.495 2 1 C2 1.99 2 2.98 2 4 C2.99 4 3.98 4 5 4 C6.32532061 6.51478831 7.63520231 9.03581987 8.9375 11.5625 C9.49727539 12.61920898 9.49727539 12.61920898 10.06835938 13.69726562 C12.37501862 18.20668054 13.58151061 21.94491389 14 27 C13.34 27 12.68 27 12 27 C11.55269531 25.9378125 11.10539062 24.875625 10.64453125 23.78125 C6.87142697 14.71993104 6.87142697 14.71993104 2.0625 6.1875 C0 3 0 3 0 0 Z " fill="#7A53B9" transform="translate(1140,333)"/>
<path d="M0 0 C4.91225366 1.40350105 6.84597026 4.11811724 10 8 C11.31647119 8.69937532 12.65022151 9.36729133 14 10 C15.70496537 11.62746694 17.37897032 13.28891311 19 15 C18.67 15.99 18.34 16.98 18 18 C11.56194377 12.78091398 5.18803644 7.51426743 -1 2 C-0.67 1.34 -0.34 0.68 0 0 Z " fill="#5D88E5" transform="translate(158,505)"/>
<path d="M0 0 C8.57849717 1.42974953 16.63682803 5.48168993 24 10 C23.01 10.66 22.02 11.32 21 12 C16.00088026 10.83741401 11.52384552 8.36525933 7 6 C7 5.34 7 4.68 7 4 C4.69 3.01 2.38 2.02 0 1 C0 0.67 0 0.34 0 0 Z " fill="#7144AD" transform="translate(1065,272)"/>
<path d="M0 0 C0.66 0 1.32 0 2 0 C0.70923237 5.88016366 -2.45996102 9.28368117 -7 13 C-10.28187124 14.88802631 -13.24916707 15.48852278 -17 16 C-16 14 -16 14 -13 13 C-11.96896295 12.03203171 -10.97110505 11.02808316 -10 10 C-8.8407801 9.01202849 -7.67387841 8.03300912 -6.5 7.0625 C-3.93048186 4.89328574 -1.98722662 2.71936274 0 0 Z " fill="#6747A1" transform="translate(927,365)"/>
<path d="M0 0 C0.66 0.33 1.32 0.66 2 1 C0.90241493 1.84198307 -0.20335317 2.67330671 -1.3125 3.5 C-1.92738281 3.9640625 -2.54226563 4.428125 -3.17578125 4.90625 C-5 6 -5 6 -8 6 C-3.06001765 13.45521146 1.52510586 16.91822031 10 20 C8.02 20.99 8.02 20.99 6 22 C-5.26006904 14.60989643 -5.26006904 14.60989643 -9 9 C-9 7.68 -9 6.36 -9 5 C-7.54735962 4.1361871 -6.0876837 3.28419546 -4.625 2.4375 C-3.40683594 1.72400391 -3.40683594 1.72400391 -2.1640625 0.99609375 C-1.44992187 0.66738281 -0.73578125 0.33867187 0 0 Z " fill="#765AB1" transform="translate(888,360)"/>
<path d="M0 0 C4.41370754 4.0124614 5.38557217 7.91301624 5.8984375 13.6875 C6.04290526 16.9769198 5.81418218 19.80590069 5 23 C2.94921875 25.19921875 2.94921875 25.19921875 1 27 C1.09539063 25.80503906 1.19078125 24.61007812 1.2890625 23.37890625 C2.1826537 11.56757773 2.1826537 11.56757773 0 0 Z " fill="#6E4EA7" transform="translate(928,336)"/>
<path d="M0 0 C0.33 0.66 0.66 1.32 1 2 C-2.13611237 6.76689081 -4.5990018 7.57868468 -10 9 C-12.67398476 10.93897879 -12.67398476 10.93897879 -15 13 C-17.125 14.3125 -17.125 14.3125 -19 15 C-19.99 14.67 -20.98 14.34 -22 14 C-21.04738281 13.39671875 -20.09476563 12.7934375 -19.11328125 12.171875 C-17.846258 11.36473427 -16.5793363 10.55743412 -15.3125 9.75 C-14.68666016 9.35425781 -14.06082031 8.95851563 -13.41601562 8.55078125 C-10.56011866 6.72659576 -7.87302991 4.89756433 -5.23046875 2.765625 C-3 1 -3 1 0 0 Z " fill="#555DB6" transform="translate(569,393)"/>
<path d="M0 0 C-9.82503059 4.16923037 -19.59434382 6.7693264 -30 9 C-30 8.34 -30 7.68 -30 7 C-27.03 6.34 -24.06 5.68 -21 5 C-21 4.34 -21 3.68 -21 3 C-16.01356783 1.85866108 -11.0468457 0.84114095 -6 0 C-3 -1 -3 -1 0 0 Z " fill="#754CB1" transform="translate(1073,540)"/>
<path d="M0 0 C0.66 0 1.32 0 2 0 C1.78611863 5.63577417 -1.92219075 8.40903429 -5.75 12.0625 C-6.37132812 12.67416016 -6.99265625 13.28582031 -7.6328125 13.91601562 C-16.94266892 23 -16.94266892 23 -20 23 C-20 22.34 -20 21.68 -20 21 C-18.56236539 19.80247138 -17.07220885 18.66778152 -15.5625 17.5625 C-9.4945821 12.85165206 -3.47755462 6.95510924 0 0 Z " fill="#6F4FA2" transform="translate(1047,445)"/>
<path d="M0 0 C4.29 0 8.58 0 13 0 C13 0.33 13 0.66 13 1 C11.88625 1.2475 10.7725 1.495 9.625 1.75 C5.95384802 2.61005339 5.95384802 2.61005339 4.5625 5.125 C4.376875 5.74375 4.19125 6.3625 4 7 C6.65654657 10.73884332 8.58110387 12.64978174 13 14 C11.3125 14.75 11.3125 14.75 9 15 C4.18988089 12.23418151 1.86836804 8.08321362 0 3 C0 2.01 0 1.02 0 0 Z " fill="#6949A3" transform="translate(962,446)"/>
<path d="M0 0 C0.66 0 1.32 0 2 0 C1.21737938 5.37282244 -0.07483943 10.56446907 -1.4375 15.8125 C-1.65470703 16.68326172 -1.87191406 17.55402344 -2.09570312 18.45117188 C-2.31033203 19.27810547 -2.52496094 20.10503906 -2.74609375 20.95703125 C-3.03504517 22.08588745 -3.03504517 22.08588745 -3.32983398 23.23754883 C-4 25 -4 25 -6 26 C-5.59685068 17.25165978 -3.94321353 7.88642706 0 0 Z " fill="#6958AA" transform="translate(762,386)"/>
<path d="M0 0 C1.58158962 3.00887781 2.43945339 5.63672037 3 9 C2.29875 8.7525 1.5975 8.505 0.875 8.25 C-3.14289796 7.90061757 -4.82881547 9.67446468 -8 12 C-8.66 12 -9.32 12 -10 12 C-8.52278578 8.54798361 -6.56205999 6.35038064 -3.875 3.75 C-3.15054688 3.04359375 -2.42609375 2.3371875 -1.6796875 1.609375 C-1.12539063 1.07828125 -0.57109375 0.5471875 0 0 Z " fill="#60429D" transform="translate(915,450)"/>
<path d="M0 0 C-0.94359375 0.4021875 -0.94359375 0.4021875 -1.90625 0.8125 C-7.81838669 3.51926137 -11.95555836 6.49343851 -16.30859375 11.328125 C-18 13 -18 13 -21 14 C-19.63529985 8.37061186 -15.48004068 5.28914379 -11 2 C-7.16526915 -0.26843234 -4.36212361 -1.36553435 0 0 Z " fill="#5C83D2" transform="translate(275,336)"/>
<path d="M0 0 C9.57 0 19.14 0 29 0 C22.64925193 4.23383205 14.19020937 4.49748586 6.8125 3.25 C2.33149171 2.33149171 2.33149171 2.33149171 0 0 Z " fill="#5F58B4" transform="translate(648,479)"/>
<path d="M0 0 C0.99 0.33 1.98 0.66 3 1 C2.34 1 1.68 1 1 1 C0.814375 1.680625 0.62875 2.36125 0.4375 3.0625 C-1.55619324 7.13656879 -4.49774708 10.13376943 -8 13 C-8.66 13 -9.32 13 -10 13 C-9.84825965 7.99256861 -7.09792829 5.72452403 -3.69140625 2.453125 C-2 1 -2 1 0 0 Z " fill="#5563BB" transform="translate(520,334)"/>
<path d="M0 0 C0.99 0.33 1.98 0.66 3 1 C3 1.66 3 2.32 3 3 C0.734375 4.7265625 0.734375 4.7265625 -2.25 6.625 C-3.22453125 7.25664063 -4.1990625 7.88828125 -5.203125 8.5390625 C-8 10 -8 10 -12 10 C-10.61470538 6.5511936 -9.38628495 5.35649967 -6 3.875 C-3.43279162 2.7329698 -2.01800698 2.01800698 0 0 Z " fill="#6538A2" transform="translate(1101,520)"/>
<path d="M0 0 C0.66 0 1.32 0 2 0 C1.47113218 3.97995443 -0.36323237 5.64344595 -3.3125 8.25 C-4.09238281 8.95640625 -4.87226562 9.6628125 -5.67578125 10.390625 C-8 12 -8 12 -12 12 C-12 11.34 -12 10.68 -12 10 C-9.8828125 8.0546875 -9.8828125 8.0546875 -7.125 5.875 C-6.22007813 5.15054688 -5.31515625 4.42609375 -4.3828125 3.6796875 C-2 2 -2 2 0 2 C0 1.34 0 0.68 0 0 Z " fill="#6D46AA" transform="translate(1116,508)"/>
<path d="M0 0 C3.2086143 1.50775163 6.05868309 3.33849118 9 5.3125 C14.72022156 9.00246749 20.64841 11.59459855 27 14 C24.44986457 14.94668601 23.22318701 15.06945203 20.58984375 14.25 C13.78502403 11.04301574 6.95773454 7.63867892 1 3 C0.67 2.01 0.34 1.02 0 0 Z " fill="#6648A1" transform="translate(923,467)"/>
<path d="M0 0 C0.33 0 0.66 0 1 0 C1.05454409 2.35448675 1.0939279 4.70767875 1.125 7.0625 C1.14820313 8.37347656 1.17140625 9.68445313 1.1953125 11.03515625 C0.99177754 15.16691589 0.40696599 18.13822272 -1 22 C-1.66 22.33 -2.32 22.66 -3 23 C-3.22094788 17.4763031 -2.89803884 13.24751913 -1 8 C-0.55847189 5.33627547 -0.2780603 2.6879162 0 0 Z " fill="#794DAE" transform="translate(1163,400)"/>
<path d="M0 0 C0.66 0 1.32 0 2 0 C2.125 7.625 2.125 7.625 1 11 C0.77820215 12.89212737 0.59385985 14.78884472 0.4375 16.6875 C0.35371094 17.68136719 0.26992188 18.67523438 0.18359375 19.69921875 C0.12300781 20.45847656 0.06242188 21.21773438 0 22 C-0.66 21.67 -1.32 21.34 -2 21 C-2.3690205 6.21867882 -2.3690205 6.21867882 0 0 Z " fill="#6060B9" transform="translate(603,434)"/>
<path d="M0 0 C0.495 0.99 0.495 0.99 1 2 C-3.0730403 2.97685365 -6.868207 3.11545444 -11.05078125 3.09765625 C-11.70958786 3.0962413 -12.36839447 3.09482635 -13.04716492 3.09336853 C-15.13565762 3.087805 -17.22404011 3.07525947 -19.3125 3.0625 C-20.73502449 3.05748028 -22.15755066 3.0529182 -23.58007812 3.04882812 C-27.05342077 3.03784757 -30.52669961 3.02060835 -34 3 C-34 2.67 -34 2.34 -34 2 C-33.33468262 1.97494385 -32.66936523 1.9498877 -31.98388672 1.92407227 C-28.94742513 1.80748864 -25.91122654 1.68504649 -22.875 1.5625 C-21.82828125 1.52318359 -20.7815625 1.48386719 -19.703125 1.44335938 C-13.11174443 1.17219498 -6.56389099 -0.19305562 0 0 Z " fill="#4E79D3" transform="translate(260,480)"/>
<path d="M0 0 C1.19997482 3.59992445 0.68836502 4.76150756 -0.43359375 8.32421875 C-0.75263672 9.35224609 -1.07167969 10.38027344 -1.40039062 11.43945312 C-1.74263672 12.51130859 -2.08488281 13.58316406 -2.4375 14.6875 C-2.77587891 15.77095703 -3.11425781 16.85441406 -3.46289062 17.97070312 C-4.30081105 20.64968814 -5.14679102 23.3258526 -6 26 C-6.66 25.67 -7.32 25.34 -8 25 C-1.88555858 1.88555858 -1.88555858 1.88555858 0 0 Z " fill="#5E78D1" transform="translate(443,361)"/>
<path d="M0 0 C0.66 0.33 1.32 0.66 2 1 C1.608125 2.11375 1.21625 3.2275 0.8125 4.375 C-1.79082486 12.14742662 -3.84257122 20.09511272 -6 28 C-6.33 28 -6.66 28 -7 28 C-6.57447307 22.33377296 -5.8739882 17.38771608 -4 12 C-3.83113516 10.62763816 -3.68654357 9.25213672 -3.5625 7.875 C-3.02106314 4.14510166 -2.54847637 2.65927969 0 0 Z " fill="#5D84DA" transform="translate(319,384)"/>
<path d="M0 0 C6.76594019 -0.11381955 13.28837062 0.11978631 20 1 C20 1.33 20 1.66 20 2 C11.64251778 2.84327749 3.39802254 3.12190678 -5 3 C-5 2.67 -5 2.34 -5 2 C-3.35 2 -1.7 2 0 2 C0 1.34 0 0.68 0 0 Z " fill="#3E73E0" transform="translate(250,262)"/>
<path d="M0 0 C0 0.66 0 1.32 0 2 C-5.33443661 4.76600417 -9.98796793 6.29270211 -16 7 C-14.99300944 4.26189082 -14.45140315 3.21075966 -11.7578125 1.953125 C-10.45457031 1.60507812 -10.45457031 1.60507812 -9.125 1.25 C-8.26132812 1.00765625 -7.39765625 0.7653125 -6.5078125 0.515625 C-4 0 -4 0 0 0 Z " fill="#65439F" transform="translate(1001,439)"/>
<path d="M0 0 C0.625 1.8125 0.625 1.8125 1 4 C0.01 5.485 0.01 5.485 -1 7 C-1.103125 7.598125 -1.20625 8.19625 -1.3125 8.8125 C-2.38234081 12.21653896 -4.6451564 14.34325338 -7 17 C-8 14 -8 14 -6.34765625 10.64453125 C-5.59622298 9.36110983 -4.83403499 8.08393866 -4.0625 6.8125 C-3.48338867 5.83120117 -3.48338867 5.83120117 -2.89257812 4.83007812 C-1.93746912 3.21464684 -0.96989934 1.60659475 0 0 Z " fill="#6757B3" transform="translate(724,431)"/>
<path d="M0 0 C6.75 0.875 6.75 0.875 9 2 C9 1.34 9 0.68 9 0 C10.32 0.66 11.64 1.32 13 2 C13 2.33 13 2.66 13 3 C17.455 3.99 17.455 3.99 22 5 C22 5.66 22 6.32 22 7 C19.26964299 6.37987481 16.54079236 5.75409113 13.8125 5.125 C12.65911133 4.86396484 12.65911133 4.86396484 11.48242188 4.59765625 C7.49938746 3.67454956 3.75211617 2.66927814 0 1 C0 0.67 0 0.34 0 0 Z M18 3 C22 4 22 4 22 4 Z " fill="#638AE9" transform="translate(214,542)"/>
<path d="M0 0 C0.33 0.66 0.66 1.32 1 2 C0.2578125 3.91015625 0.2578125 3.91015625 -0.875 6.0625 C-1.24367187 6.77535156 -1.61234375 7.48820312 -1.9921875 8.22265625 C-3 10 -3 10 -4 11 C-4.23287008 12.68183948 -4.41264166 14.3712416 -4.5625 16.0625 C-4.64628906 16.98160156 -4.73007813 17.90070313 -4.81640625 18.84765625 C-4.87699219 19.55792969 -4.93757812 20.26820313 -5 21 C-5.33 21 -5.66 21 -6 21 C-6.08150744 18.93816367 -6.1394194 16.87538651 -6.1875 14.8125 C-6.22230469 13.66394531 -6.25710937 12.51539063 -6.29296875 11.33203125 C-5.97436317 7.70842376 -5.21947332 5.85360856 -3 3 C-2.34 3 -1.68 3 -1 3 C-0.67 2.01 -0.34 1.02 0 0 Z " fill="#7090DA" transform="translate(233,415)"/>
<path d="M0 0 C0.66 0.33 1.32 0.66 2 1 C1.49210938 1.59425781 0.98421875 2.18851562 0.4609375 2.80078125 C-4.55658103 8.84247491 -8.47945254 14.98557589 -12 22 C-13.00681167 19.38708399 -13.13803844 18.32728469 -12.03125 15.703125 C-8.46769072 9.99415758 -4.62224519 4.89575082 0 0 Z " fill="#7051AC" transform="translate(929,398)"/>
<path d="M0 0 C0 0.66 0 1.32 0 2 C-5.38490641 2.91657981 -10.54230189 3.11138159 -16 3 C-16 2.67 -16 2.34 -16 2 C-17.65 1.67 -19.3 1.34 -21 1 C-21 0.67 -21 0.34 -21 0 C-19.10440036 -0.16930395 -17.20850769 -0.33532864 -15.3125 -0.5 C-14.25675781 -0.5928125 -13.20101562 -0.685625 -12.11328125 -0.78125 C-7.85033799 -1.08077926 -4.11838287 -1.22026159 0 0 Z " fill="#633EA6" transform="translate(1033,549)"/>
<path d="M0 0 C0.66 0.33 1.32 0.66 2 1 C0.9275 1.7425 -0.145 2.485 -1.25 3.25 C-3.50639512 4.84355068 -5.27502838 6.29074428 -7.1875 8.3125 C-9 10 -9 10 -13 10 C-13 9.01 -13 8.02 -13 7 C-10.88002166 5.80266012 -8.75486324 4.61701287 -6.625 3.4375 C-6.02171875 3.09525391 -5.4184375 2.75300781 -4.796875 2.40039062 C-3.23021759 1.53872905 -1.61709138 0.76281817 0 0 Z " fill="#6B4EA5" transform="translate(899,464)"/>
<path d="M0 0 C0.33 0 0.66 0 1 0 C1.38333333 11.96851852 1.38333333 11.96851852 -1 17 C-1.66 17.33 -2.32 17.66 -3 18 C-2.57045059 11.74892565 -1.98598493 5.95795479 0 0 Z " fill="#6A44A8" transform="translate(1160,426)"/>
<path d="M0 0 C1.11346788 2.80033839 1.03510273 3.90143703 0.00390625 6.796875 C-0.47175781 7.77140625 -0.94742188 8.7459375 -1.4375 9.75 C-1.91058594 10.73484375 -2.38367188 11.7196875 -2.87109375 12.734375 C-3.24363281 13.48203125 -3.61617187 14.2296875 -4 15 C-4.99 14.67 -5.98 14.34 -7 14 C-6.34097701 10.42959697 -4.83770842 7.82267745 -2.9375 4.75 C-2.38964844 3.85796875 -1.84179688 2.9659375 -1.27734375 2.046875 C-0.64505859 1.03367187 -0.64505859 1.03367187 0 0 Z " fill="#5984E5" transform="translate(138,332)"/>
<path d="M0 0 C0.33 0 0.66 0 1 0 C1.3077917 3.13837611 1.27813784 4.59343628 -0.53125 7.23828125 C-1.1809375 7.92277344 -1.830625 8.60726563 -2.5 9.3125 C-3.1496875 10.00988281 -3.799375 10.70726562 -4.46875 11.42578125 C-4.9740625 11.94527344 -5.479375 12.46476562 -6 13 C-6.99 12.67 -7.98 12.34 -9 12 C-7.52464063 9.99708788 -6.04497707 7.99763223 -4.5625 6 C-4.14162109 5.42765625 -3.72074219 4.8553125 -3.28710938 4.265625 C-2.21555864 2.82546081 -1.11033324 1.41048004 0 0 Z " fill="#633AA3" transform="translate(1134,488)"/>
<path d="M0 0 C5.26621606 0.59578777 9.94408019 1.81308796 14.9375 3.5625 C15.96327148 3.91344727 15.96327148 3.91344727 17.00976562 4.27148438 C18.67508501 4.84211829 20.33782493 5.42027098 22 6 C18.59938865 7.16213553 16.62507383 6.82148181 13.25 5.6875 C8.8611608 4.26796447 4.48402055 3.07948643 0 2 C0 1.34 0 0.68 0 0 Z " fill="#6E5AAC" transform="translate(798,473)"/>
<path d="M0 0 C0.60328125 0.19464844 1.2065625 0.38929688 1.828125 0.58984375 C1.11527344 1.01394531 0.40242188 1.43804687 -0.33203125 1.875 C-6.35575725 5.56382279 -11.46792316 9.30793195 -16.171875 14.58984375 C-16.171875 11.58984375 -16.171875 11.58984375 -14.6328125 9.6875 C-3.94080364 -0.74421651 -3.94080364 -0.74421651 0 0 Z " fill="#6087DC" transform="translate(189.171875,392.41015625)"/>
<path d="M0 0 C-0.33 0.99 -0.66 1.98 -1 3 C-1.9590625 3.2165625 -1.9590625 3.2165625 -2.9375 3.4375 C-3.9584375 3.7159375 -3.9584375 3.7159375 -5 4 C-5.28875 4.639375 -5.5775 5.27875 -5.875 5.9375 C-7 8 -7 8 -10.125 9.25 C-11.07375 9.4975 -12.0225 9.745 -13 10 C-12.07819166 5.9670885 -10.42703613 4.34821128 -7.0625 2.1875 C-4.31775625 0.5201323 -3.28567269 0 0 0 Z " fill="#5066BE" transform="translate(442,345)"/>
<path d="M0 0 C0.33 0.99 0.66 1.98 1 3 C-1.10078511 6.07614963 -2.88621595 7.92414397 -6 10 C-7.32 10 -8.64 10 -10 10 C-10 9.34 -10 8.68 -10 8 C-8.06640625 6.30859375 -8.06640625 6.30859375 -5.5625 4.4375 C-2.67307373 2.34532911 -2.67307373 2.34532911 0 0 Z " fill="#5652AE" transform="translate(634,464)"/>
<path d="M0 0 C0.66 0 1.32 0 2 0 C1.5547115 5.27315333 0.91626837 10.01770224 -1 15 C-2.71056541 12.41569255 -3.05220752 11.31678461 -2.5390625 8.203125 C-2.23742188 7.22859375 -1.93578125 6.2540625 -1.625 5.25 C-1.32851562 4.26515625 -1.03203125 3.2803125 -0.7265625 2.265625 C-0.48679687 1.51796875 -0.24703125 0.7703125 0 0 Z " fill="#7044A7" transform="translate(1155,446)"/>
<path d="M0 0 C0.33 0 0.66 0 1 0 C1.48792229 3.25281528 1.40014561 5.34713084 -0.3359375 8.1796875 C-1.84217602 10.1667909 -3.38217825 12.1029114 -5 14 C-5.99 13.67 -6.98 13.34 -8 13 C-7.59007812 12.39671875 -7.18015625 11.7934375 -6.7578125 11.171875 C-6.21898437 10.37265625 -5.68015625 9.5734375 -5.125 8.75 C-4.59132813 7.96109375 -4.05765625 7.1721875 -3.5078125 6.359375 C-2.18177985 4.28444308 -1.05071825 2.22385028 0 0 Z " fill="#6083D4" transform="translate(328,434)"/>
<path d="M0 0 C2.94897721 2.74559948 5.26205705 5.34117274 7 9 C6.6875 11.3125 6.6875 11.3125 6 13 C6 12.34 6 11.68 6 11 C5.01 10.67 4.02 10.34 3 10 C0.43888497 6.58517997 -0.36444983 4.25191465 0 0 Z " fill="#4474E0" transform="translate(134,471)"/>
<path d="M0 0 C1.051875 -0.00386719 1.051875 -0.00386719 2.125 -0.0078125 C4 0.125 4 0.125 6 1.125 C6 1.785 6 2.445 6 3.125 C5.13375 3.08375 4.2675 3.0425 3.375 3 C-0.12358468 3.12957721 -2.74551597 3.88519656 -6 5.125 C-6 3.805 -6 2.485 -6 1.125 C-3.75487738 0.00243869 -2.48543351 -0.00913762 0 0 Z " fill="#65489C" transform="translate(991,394.875)"/>
<path d="M0 0 C0 3.53922552 -0.70481438 4.31891897 -2.8125 7.0625 C-3.33457031 7.75472656 -3.85664063 8.44695312 -4.39453125 9.16015625 C-6 11 -6 11 -9 13 C-8.34938905 11.32700041 -7.67966676 9.66140763 -7 8 C-6.731875 7.319375 -6.46375 6.63875 -6.1875 5.9375 C-4.58123161 3.31674631 -2.45435148 1.80846951 0 0 Z " fill="#5A6AC3" transform="translate(472,462)"/>
<path d="M0 0 C0.66 0.33 1.32 0.66 2 1 C0.37676928 3.12637234 -1.2484953 5.25113436 -2.875 7.375 C-3.33519531 7.97828125 -3.79539062 8.5815625 -4.26953125 9.203125 C-6.09372941 11.58251391 -7.87741212 13.87741212 -10 16 C-9.46322564 11.84551354 -8.19850793 9.54037665 -5.5625 6.3125 C-4.94503906 5.54550781 -4.32757813 4.77851563 -3.69140625 3.98828125 C-2 2 -2 2 0 0 Z " fill="#6686D8" transform="translate(391,351)"/>
<path d="M0 0 C1.41623216 -0.05447047 2.83308191 -0.09300508 4.25 -0.125 C5.03890625 -0.14820313 5.8278125 -0.17140625 6.640625 -0.1953125 C9.26966951 0.02232364 10.81048189 0.53709188 13 2 C13.33 2.99 13.66 3.98 14 5 C10.7 4.34 7.4 3.68 4 3 C4 2.34 4 1.68 4 1 C2.68 0.67 1.36 0.34 0 0 Z " fill="#4A79E1" transform="translate(232,546)"/>
<path d="M0 0 C3.03474709 2.94278505 5.93065792 5.97431256 8.75 9.125 C9.34296875 9.78757812 9.9359375 10.45015625 10.546875 11.1328125 C12 13 12 13 13 16 C8.8410831 14.47379196 6.75850553 11.46451578 4.25 8 C3.63318359 7.18015625 3.63318359 7.18015625 3.00390625 6.34375 C0 2.27200997 0 2.27200997 0 0 Z " fill="#6C59AF" transform="translate(772,448)"/>
<path d="M0 0 C1.109375 1.73828125 1.109375 1.73828125 2 4 C1.390625 6.10546875 1.390625 6.10546875 0.25 8.1875 C-0.11609375 8.88230469 -0.4821875 9.57710938 -0.859375 10.29296875 C-2 12 -2 12 -4 13 C-3.40895235 8.15340923 -2.02055843 4.39251833 0 0 Z " fill="#5968C2" transform="translate(478,446)"/>
<path d="M0 0 C0 0.66 0 1.32 0 2 C-1.93356782 2.69848264 -3.87202298 3.38344814 -5.8125 4.0625 C-6.89144531 4.44535156 -7.97039062 4.82820313 -9.08203125 5.22265625 C-12 6 -12 6 -15 5 C-9.86445624 1.87839497 -6.11560981 0 0 0 Z " fill="#3B6EDC" transform="translate(223,270)"/>
<path d="M0 0 C3.60555842 1.33920741 6.70914824 3.02548894 10 5 C11.65369357 5.69822617 13.31727014 6.37498605 15 7 C13.02 7.99 13.02 7.99 11 9 C9.35050343 7.88037801 7.70550162 6.75413155 6.0625 5.625 C5.14597656 4.99851562 4.22945312 4.37203125 3.28515625 3.7265625 C1 2 1 2 0 0 Z " fill="#6B4EA9" transform="translate(883,373)"/>
<path d="M0 0 C1.98 0 3.96 0 6 0 C6 0.66 6 1.32 6 2 C7.134375 2.28875 8.26875 2.5775 9.4375 2.875 C10.613125 3.24625 11.78875 3.6175 13 4 C13.33 4.66 13.66 5.32 14 6 C12.03846209 5.57709963 10.08080125 5.13618382 8.125 4.6875 C7.03445313 4.44386719 5.94390625 4.20023437 4.8203125 3.94921875 C2 3 2 3 0 0 Z " fill="#5A289F" transform="translate(1059,271)"/>
<path d="M0 0 C3.63 0 7.26 0 11 0 C11 0.66 11 1.32 11 2 C12.32 2.33 13.64 2.66 15 3 C9.47322267 3.19392201 5.24385089 2.7479503 0 1 C0 0.67 0 0.34 0 0 Z " fill="#5B2CA1" transform="translate(1029,264)"/>
<path d="M0 0 C0.99 0.66 1.98 1.32 3 2 C1.35 4.97 -0.3 7.94 -2 11 C-2.33 11 -2.66 11 -3 11 C-3.32613618 6.32538149 -2.70582788 3.83325617 0 0 Z " fill="#734DA8" transform="translate(1145,471)"/>
<path d="M0 0 C0.66 0.33 1.32 0.66 2 1 C0.5484451 2.67257355 -0.91144409 4.33791758 -2.375 6 C-3.18710937 6.928125 -3.99921875 7.85625 -4.8359375 8.8125 C-5.55007813 9.534375 -6.26421875 10.25625 -7 11 C-7.66 11 -8.32 11 -9 11 C-7.59155282 7.78475695 -5.89655214 5.67816132 -3.375 3.25 C-2.74335937 2.63640625 -2.11171875 2.0228125 -1.4609375 1.390625 C-0.73777344 0.70226562 -0.73777344 0.70226562 0 0 Z " fill="#6A4AA2" transform="translate(1026,420)"/>
<path d="M0 0 C-1.485 0.9590625 -1.485 0.9590625 -3 1.9375 C-4.485 2.9584375 -4.485 2.9584375 -6 4 C-6 4.33 -6 4.66 -6 5 C-10.455 5.495 -10.455 5.495 -15 6 C-13.48400735 2.9680147 -11.1403567 2.58975563 -8.0625 1.3125 C-6.98097656 0.85488281 -5.89945313 0.39726562 -4.78515625 -0.07421875 C-2 -1 -2 -1 0 0 Z " fill="#608EEB" transform="translate(215,272)"/>
<path d="M0 0 C1.10084497 4.40337988 0.7915332 5.26798414 -0.9375 9.25 C-1.31777344 10.14203125 -1.69804688 11.0340625 -2.08984375 11.953125 C-2.39019531 12.62859375 -2.69054687 13.3040625 -3 14 C-3.99 14 -4.98 14 -6 14 C-4.02 9.38 -2.04 4.76 0 0 Z " fill="#6362BC" transform="translate(637,422)"/>
<path d="M0 0 C3.465 1.98 3.465 1.98 7 4 C5 6 5 6 1.875 6.125 C0.451875 6.063125 0.451875 6.063125 -1 6 C-0.67 4.02 -0.34 2.04 0 0 Z " fill="#456FCB" transform="translate(212,378)"/>
<path d="M0 0 C0.33 0 0.66 0 1 0 C0.67 2.97 0.34 5.94 0 9 C-0.99 9.33 -1.98 9.66 -3 10 C-2.25 3.375 -2.25 3.375 0 0 Z " fill="#6152AE" transform="translate(692,408)"/>
<path d="M0 0 C3.27742098 3.10026309 5.93104837 5.97098894 8 10 C8 10.66 8 11.32 8 12 C7.34 12 6.68 12 6 12 C5.34 11.01 4.68 10.02 4 9 C3.34 8.67 2.68 8.34 2 8 C1.3671875 6.15234375 1.3671875 6.15234375 0.875 3.9375 C0.70742187 3.20402344 0.53984375 2.47054688 0.3671875 1.71484375 C0.24601562 1.14894531 0.12484375 0.58304687 0 0 Z " fill="#7E5AB9" transform="translate(1136,325)"/>
<path d="M0 0 C4.60853797 0.72008406 8.67237409 2.31295939 13 4 C12.01 5.485 12.01 5.485 11 7 C7.00548043 5.07161124 3.52793912 2.67636761 0 0 Z " fill="#754BB5" transform="translate(1065,272)"/>
<path d="M0 0 C0 3 0 3 -1.390625 4.75390625 C-2.00421875 5.35074219 -2.6178125 5.94757813 -3.25 6.5625 C-3.85328125 7.16191406 -4.4565625 7.76132812 -5.078125 8.37890625 C-6.97121638 9.97572113 -8.74536429 10.99738545 -11 12 C-9.49650623 8.33213607 -7.36271208 6.31089607 -4.375 3.75 C-3.14910156 2.69039063 -3.14910156 2.69039063 -1.8984375 1.609375 C-1.27195312 1.07828125 -0.64546875 0.5471875 0 0 Z " fill="#577DCF" transform="translate(317,451)"/>
<path d="M0 0 C0.66 0 1.32 0 2 0 C1.25 6.75 1.25 6.75 -1 9 C-2.65 7.02 -4.3 5.04 -6 3 C-3.525 3.99 -3.525 3.99 -1 5 C-0.67 3.35 -0.34 1.7 0 0 Z " fill="#5F5CB4" transform="translate(651,381)"/>
<path d="M0 0 C0 0.66 0 1.32 0 2 C-5.29230769 5.07692308 -5.29230769 5.07692308 -8.875 4.6875 C-9.57625 4.460625 -10.2775 4.23375 -11 4 C-5 0 -5 0 0 0 Z " fill="#635EBB" transform="translate(620,456)"/>
<path d="M0 0 C1.65 0 3.3 0 5 0 C5.96516243 3.00272755 6.22393475 5.04215769 5 8 C4.01 8.33 3.02 8.66 2 9 C2.52268466 6.23723823 3.10869587 3.6739124 4 1 C2.68 0.67 1.36 0.34 0 0 Z " fill="#6E8DDB" transform="translate(292,378)"/>
<path d="M0 0 C3.3 0 6.6 0 10 0 C9.67 0.99 9.34 1.98 9 3 C5.7 2.67 2.4 2.34 -1 2 C-0.67 1.34 -0.34 0.68 0 0 Z " fill="#5E419E" transform="translate(899,380)"/>
<path d="M0 0 C0.99 0.495 0.99 0.495 2 1 C2 1.99 2 2.98 2 4 C2.99 4 3.98 4 5 4 C5.33 6.31 5.66 8.62 6 11 C3.37997275 8.62949916 1.64180091 6.12723983 0 3 C0 2.01 0 1.02 0 0 Z " fill="#6438A6" transform="translate(1140,333)"/>
<path d="M0 0 C2.35953094 2.35953094 2.49141413 3.77895617 3 7 C1.35 7.33 -0.3 7.66 -2 8 C-1.125 2.25 -1.125 2.25 0 0 Z " fill="#7960AC" transform="translate(964,422)"/>
<path d="M0 0 C0.99 0.33 1.98 0.66 3 1 C0.69 3.31 -1.62 5.62 -4 8 C-4.33 7.01 -4.66 6.02 -5 5 C-3.35 3.35 -1.7 1.7 0 0 Z " fill="#65459D" transform="translate(979,400)"/>
<path d="M0 0 C5.66153846 1.47692308 5.66153846 1.47692308 7.375 4.125 C7.684375 5.053125 7.684375 5.053125 8 6 C4.06830895 6 2.83572772 4.60580385 0 2 C0 1.34 0 0.68 0 0 Z " fill="#6335A2" transform="translate(1108,298)"/>
<path d="M0 0 C0.95465783 2.16967689 1.14401212 3.56328793 0.3984375 5.82421875 C-0.35870385 7.5684743 -1.17609198 9.28627131 -2 11 C-2.33 11 -2.66 11 -3 11 C-2.53199289 6.94393835 -2.12046792 3.53411321 0 0 Z " fill="#665EB5" transform="translate(699,387)"/>
<path d="M0 0 C0.99 0.33 1.98 0.66 3 1 C1.35 2.98 -0.3 4.96 -2 7 C-2.66 6.34 -3.32 5.68 -4 5 C-2.68 3.35 -1.36 1.7 0 0 Z " fill="#5C62BA" transform="translate(575,384)"/>
<path d="M0 0 C0 0.66 0 1.32 0 2 C-0.969375 2.804375 -1.93875 3.60875 -2.9375 4.4375 C-6.19375327 6.70684377 -6.19375327 6.70684377 -7 10 C-7.99 9.34 -8.98 8.68 -10 8 C-8.71451591 6.66070495 -7.42141845 5.32871357 -6.125 4 C-5.04605469 2.88625 -5.04605469 2.88625 -3.9453125 1.75 C-2 0 -2 0 0 0 Z " fill="#6187E8" transform="translate(169,298)"/>
<path d="M0 0 C0.66 0.33 1.32 0.66 2 1 C-0.97 3.64 -3.94 6.28 -7 9 C-7.66 8.67 -8.32 8.34 -9 8 C-7.37660195 6.29115995 -5.70680947 4.62553283 -4 3 C-3.34 3 -2.68 3 -2 3 C-2 2.34 -2 1.68 -2 1 C-1.34 0.67 -0.68 0.34 0 0 Z " fill="#3F6DDD" transform="translate(171,297)"/>
<path d="M0 0 C4.75 0.75 4.75 0.75 7 3 C6.67 3.66 6.34 4.32 6 5 C4.02 4.34 2.04 3.68 0 3 C0 2.01 0 1.02 0 0 Z " fill="#5B84E2" transform="translate(188,528)"/>
<path d="M0 0 C0.66 0 1.32 0 2 0 C1.42655063 2.86724686 1.1385485 3.8614515 -1 6 C-3.625 6.125 -3.625 6.125 -6 6 C-4.71034824 4.62437146 -3.37310707 3.29233607 -2 2 C-1.34 2 -0.68 2 0 2 C0 1.34 0 0.68 0 0 Z " fill="#61359C" transform="translate(1116,508)"/>
<path d="M0 0 C0.33 0 0.66 0 1 0 C1 3.96 1 7.92 1 12 C0.01 11.67 -0.98 11.34 -2 11 C-1 3.57142857 -1 3.57142857 0 0 Z " fill="#6595E8" transform="translate(122,365)"/>
<path d="M0 0 C2.55803184 3.83704776 4.34505724 7.75712791 3.625 12.4375 C3.41875 12.953125 3.2125 13.46875 3 14 C2.67 13.01 2.34 12.02 2 11 C1.34 10.67 0.68 10.34 0 10 C0 6.7 0 3.4 0 0 Z " fill="#8A65BF" transform="translate(1156,363)"/>
<path d="M0 0 C0.99 0.495 0.99 0.495 2 1 C2.33 1.99 2.66 2.98 3 4 C3.66 4.33 4.32 4.66 5 5 C5.40729228 7.32156597 5.74438677 9.6568787 6 12 C5.34 12 4.68 12 4 12 C3.3291288 10.3767313 2.66342971 8.75132422 2 7.125 C1.62875 6.22007812 1.2575 5.31515625 0.875 4.3828125 C0 2 0 2 0 0 Z " fill="#61339D" transform="translate(1148,348)"/>
<path d="M0 0 C0.66 0.33 1.32 0.66 2 1 C1.01 1.99 0.02 2.98 -1 4 C-1.66 3.34 -2.32 2.68 -3 2 C-2.01 1.34 -1.02 0.68 0 0 Z M-10 11 C-9.01 11.495 -9.01 11.495 -8 12 C-8.99 12.495 -8.99 12.495 -10 13 C-10 12.34 -10 11.68 -10 11 Z " fill="#6086D8" transform="translate(245,402)"/>
<path d="M0 0 C0.99928333 2.698065 1.03624754 3.88010429 0.1875 6.6875 C-1 9 -1 9 -3 10 C-2.25 3.375 -2.25 3.375 0 0 Z " fill="#6852A9" transform="translate(833,387)"/>
<path d="M0 0 C0.33 0.66 0.66 1.32 1 2 C1.66 2.33 2.32 2.66 3 3 C1.68 5.64 0.36 8.28 -1 11 C-2.13757948 6.44968209 -1.4283779 4.36915594 0 0 Z " fill="#6185D7" transform="translate(293,387)"/>
<path d="M0 0 C-0.66 0.66 -1.32 1.32 -2 2 C-4.3828125 1.9765625 -4.3828125 1.9765625 -7.125 1.625 C-8.03507812 1.51414062 -8.94515625 1.40328125 -9.8828125 1.2890625 C-10.58148438 1.19367188 -11.28015625 1.09828125 -12 1 C-12 0.67 -12 0.34 -12 0 C-3.42857143 -1.28571429 -3.42857143 -1.28571429 0 0 Z " fill="#4D76CF" transform="translate(315,365)"/>
<path d="M0 0 C1.32 0.33 2.64 0.66 4 1 C-0.455 3.97 -0.455 3.97 -5 7 C-5 6.01 -5 5.02 -5 4 C-2.75 1.75 -2.75 1.75 0 0 Z " fill="#7660B8" transform="translate(805,335)"/>
<path d="M0 0 C1.98 1.65 3.96 3.3 6 5 C4.1875 5.625 4.1875 5.625 2 6 C1.01 5.34 0.02 4.68 -1 4 C-0.67 2.68 -0.34 1.36 0 0 Z " fill="#8262C0" transform="translate(1116,302)"/>
<path d="M0 0 C0 0.66 0 1.32 0 2 C-3.3 2.33 -6.6 2.66 -10 3 C-9 1 -9 1 -7.25 0.375 C-4.79549443 -0.03408426 -2.4840589 -0.06900164 0 0 Z " fill="#3B6EDE" transform="translate(234,267)"/>
<path d="M0 0 C1.31223496 3.93670488 0.24296256 6.12488144 -1 10 C-1.66 10 -2.32 10 -3 10 C-2.69201674 8.51988629 -2.378482 7.04092675 -2.0625 5.5625 C-1.88847656 4.73878906 -1.71445312 3.91507812 -1.53515625 3.06640625 C-1 1 -1 1 0 0 Z " fill="#5464BA" transform="translate(496,386)"/>
<path d="M0 0 C-2.76223278 2.76223278 -5.20706617 2.57856291 -9 3 C-9 2.34 -9 1.68 -9 1 C-5.57367167 -0.61798838 -3.61944899 -1.34053666 0 0 Z " fill="#5F5BB1" transform="translate(621,477)"/>
<path d="M0 0 C6.625 0.625 6.625 0.625 10 4 C6.7 3.34 3.4 2.68 0 2 C0 1.34 0 0.68 0 0 Z " fill="#5F46A4" transform="translate(798,473)"/>
<path d="M0 0 C-1.23789629 3.71368887 -2.85224877 4.77354181 -6 7 C-6.66 7 -7.32 7 -8 7 C-8 6.34 -8 5.68 -8 5 C-2.52380952 0 -2.52380952 0 0 0 Z " fill="#668BDE" transform="translate(302,440)"/>
<path d="M0 0 C1.53166168 4.08443115 0.63081652 7.79455657 0 12 C-0.33 12 -0.66 12 -1 12 C-1.22162329 10.37675914 -1.42689803 8.751279 -1.625 7.125 C-1.74101563 6.22007812 -1.85703125 5.31515625 -1.9765625 4.3828125 C-1.98429687 3.59648437 -1.99203125 2.81015625 -2 2 C-1.34 1.34 -0.68 0.68 0 0 Z " fill="#895EC0" transform="translate(1162,421)"/>
<path d="M0 0 C0.66 0.33 1.32 0.66 2 1 C1.4375 2.9375 1.4375 2.9375 0 5 C-3.625 5.75 -3.625 5.75 -7 6 C-4.74259377 3.66475218 -2.7194239 1.81294927 0 0 Z " fill="#6189E8" transform="translate(185,285)"/>
<path d="M0 0 C5.75 0.75 5.75 0.75 8 3 C5.6875 3.625 5.6875 3.625 3 4 C2.01 3.34 1.02 2.68 0 2 C0 1.34 0 0.68 0 0 Z " fill="#653AAA" transform="translate(1086,283)"/>
<path d="M0 0 C0.66 0.33 1.32 0.66 2 1 C0.25 3 0.25 3 -2 5 C-3.32 5 -4.64 5 -6 5 C-6 4.34 -6 3.68 -6 3 C-4.03533587 1.93224776 -2.03144641 0.93446535 0 0 Z " fill="#7353A4" transform="translate(1023,469)"/>
<path d="M0 0 C0.8971875 0.309375 0.8971875 0.309375 1.8125 0.625 C-1.5215947 2.81597652 -4.22929141 4.05954163 -8.1875 4.625 C-3.2421875 -0.55580357 -3.2421875 -0.55580357 0 0 Z " fill="#5B82D1" transform="translate(296.1875,468.375)"/>
<path d="M0 0 C-1.1875 1.5625 -1.1875 1.5625 -3 3 C-5.6875 2.6875 -5.6875 2.6875 -8 2 C-6.14210462 -1.71579076 -3.44525918 -1.06921837 0 0 Z " fill="#5964BB" transform="translate(542,410)"/>
<path d="M0 0 C0 3.52032428 -0.70351351 4.4385343 -3 7 C-3.66 7 -4.32 7 -5 7 C-4.60196439 4.11424181 -4.20990931 3.17810487 -1.9375 1.25 C-1.298125 0.8375 -0.65875 0.425 0 0 Z " fill="#4770DD" transform="translate(146,323)"/>
</svg>
